<?xml version="1.0" standalone="no"?>
<!DOCTYPE svg PUBLIC "-//W3C//DTD SVG 20010904//EN"
 "http://www.w3.org/TR/2001/REC-SVG-20010904/DTD/svg10.dtd">
<svg version="1.0" xmlns="http://www.w3.org/2000/svg"
 width="471.000000pt" height="471.000000pt" viewBox="0 0 471.000000 471.000000"
 preserveAspectRatio="xMidYMid meet">
<metadata>
Created by potrace 1.11, written by Peter Selinger 2001-2013
</metadata>
<g transform="translate(0.000000,471.000000) scale(0.100000,-0.100000)"
fill="#000000" stroke="none">
<path d="M0 2495 l0 -2215 38 0 c20 0 59 11 86 25 59 30 86 34 61 9 -20 -21
-17 -24 18 -17 17 3 26 11 25 21 -2 8 2 17 9 19 8 3 11 -3 8 -17 -5 -26 -24
-52 -34 -46 -4 3 -13 1 -20 -3 -26 -17 54 -9 93 9 23 10 66 20 96 21 30 2 61
9 68 16 7 7 19 10 27 7 7 -3 23 0 35 6 18 10 24 9 31 -1 6 -10 -4 -17 -36 -27
-25 -7 -45 -18 -45 -25 0 -7 -7 -22 -16 -33 -15 -18 -15 -18 -9 4 9 33 -9 27
-22 -9 -7 -18 -17 -28 -23 -24 -6 3 -7 12 -3 18 4 7 -1 5 -12 -3 -10 -8 -19
-13 -21 -10 -1 3 -6 1 -11 -3 -4 -5 -3 -8 2 -7 6 1 16 2 24 1 11 -1 11 -4 1
-16 -7 -9 -19 -14 -26 -11 -7 3 -18 -1 -24 -9 -13 -16 -114 -39 -134 -32 -8 3
-26 -1 -41 -9 -24 -12 -26 -12 -21 1 8 22 -11 18 -36 -7 -22 -22 -68 -34 -68
-17 0 5 -4 9 -9 9 -5 0 -8 -17 -8 -38 0 -24 5 -39 13 -39 7 0 10 5 7 11 -4 6
1 5 11 -3 12 -10 14 -17 6 -25 -14 -14 -13 -26 4 -26 16 0 27 58 12 64 -6 2
-1 5 12 5 14 1 21 -3 17 -9 -4 -6 -2 -17 5 -25 9 -10 7 -16 -7 -24 -17 -10
-16 -10 4 -11 12 0 25 5 28 10 3 6 13 10 22 10 9 0 21 8 28 17 11 14 15 15 29
4 9 -8 26 -10 45 -6 17 4 32 6 33 4 6 -5 88 42 88 50 0 5 7 11 15 15 13 5 14
2 4 -15 -14 -27 -1 -39 17 -15 7 11 17 16 21 13 4 -4 1 -13 -5 -19 -7 -7 -12
-16 -12 -20 0 -18 29 -6 64 28 29 28 37 32 42 20 9 -23 44 -20 71 6 14 13 38
22 62 24 21 1 44 5 50 8 13 8 14 -4 2 -23 -5 -8 -14 -10 -21 -6 -8 5 -11 4 -6
-3 9 -15 -51 -42 -97 -44 -20 -1 -37 -5 -37 -9 0 -4 -11 -10 -24 -13 -13 -3
-32 -9 -42 -13 -11 -4 -15 -3 -11 4 5 8 -2 8 -23 0 -25 -10 -33 -9 -40 3 -8
12 -11 12 -27 -2 -10 -8 -33 -15 -51 -14 -19 0 -36 -3 -39 -7 -2 -4 96 -6 219
-5 172 2 222 6 221 15 -2 7 2 13 8 13 6 0 9 -7 5 -15 -5 -13 30 -15 276 -15
155 0 278 3 275 7 -4 3 -2 12 4 19 9 11 13 11 25 0 8 -9 26 -12 45 -9 21 3 29
1 24 -6 -10 -17 44 -13 61 4 16 16 51 19 79 9 13 -5 14 -8 3 -15 -7 -5 19 -8
65 -7 74 1 77 2 77 25 0 17 6 23 21 23 20 0 21 -1 5 -25 l-16 -25 102 0 c91 0
100 2 82 14 -18 14 -16 15 22 21 54 9 74 22 55 34 -22 14 7 73 32 65 10 -3 23
-1 30 4 7 6 29 10 50 10 31 0 36 -2 26 -14 -6 -8 -21 -14 -33 -14 -29 0 -53
-50 -32 -66 23 -16 3 -38 -29 -32 -15 3 -39 0 -53 -8 -23 -11 188 -14 1381
-14 l1407 0 0 62 0 63 -48 0 c-26 0 -53 -4 -60 -8 -7 -5 -26 -1 -45 9 -17 9
-47 19 -66 23 -40 7 -53 30 -22 38 18 5 21 11 16 33 -5 21 -2 31 10 38 16 8
16 10 0 25 -15 16 -15 17 2 17 10 0 24 -9 31 -21 9 -15 19 -18 35 -13 12 4 25
12 29 18 8 12 10 10 25 -26 11 -24 9 -28 -13 -43 -31 -20 -23 -36 14 -26 15 5
42 6 60 3 31 -4 32 -3 32 32 0 40 -2 41 -32 25 -24 -13 -38 1 -38 38 0 17 7
24 35 29 l35 6 0 77 0 77 -27 -2 c-16 -1 -32 -2 -38 -3 -5 -1 6 -15 25 -31
l35 -30 -25 -20 c-27 -21 -52 -28 -32 -8 14 14 16 28 3 28 -5 0 -12 -9 -16
-19 -4 -15 -12 -18 -37 -14 -51 8 -76 21 -83 43 -7 23 -36 20 -66 -7 -12 -10
-30 -12 -68 -7 -36 5 -51 3 -51 -5 0 -7 -4 -9 -10 -6 -6 3 -10 2 -10 -4 0 -5
-15 -11 -32 -13 -25 -2 -34 -8 -36 -25 -2 -13 -8 -23 -14 -23 -6 0 -6 -6 2
-15 7 -8 20 -15 29 -15 10 0 28 -10 40 -21 22 -21 22 -22 5 -33 -11 -6 -21
-11 -24 -11 -3 0 -15 -7 -28 -14 -13 -7 -30 -10 -37 -7 -14 5 -39 -17 -29 -27
10 -10 -32 -26 -54 -20 -29 7 -28 19 3 27 29 7 32 18 9 37 -14 11 -18 10 -30
-6 -16 -22 -19 -20 -28 17 -5 23 -3 28 13 28 11 0 23 -4 26 -10 3 -5 23 -10
45 -10 34 0 38 2 33 21 -3 12 -1 24 6 28 8 5 9 15 2 32 -13 35 -3 75 22 86 20
9 20 9 -3 30 -18 18 -32 21 -76 18 -51 -3 -68 5 -43 21 14 8 -8 24 -35 24 -11
0 -16 -5 -13 -14 4 -9 -3 -16 -19 -20 -19 -5 -24 -11 -19 -26 8 -24 -13 -27
-29 -4 -9 12 -17 13 -37 5 -30 -11 -95 1 -92 17 2 7 -4 12 -12 12 -9 0 -18 7
-21 15 -5 12 -9 13 -21 3 -8 -6 -24 -13 -36 -14 -12 -1 -32 -5 -43 -9 -19 -6
-22 -2 -28 30 -5 27 -11 35 -22 31 -9 -3 -22 -6 -30 -6 -8 0 -14 -7 -14 -16 0
-9 -9 -18 -20 -21 -12 -3 -27 -17 -35 -32 -14 -26 -14 -25 -11 17 2 30 0 42
-10 42 -8 0 -15 -4 -15 -10 -1 -5 -2 -14 -3 -18 -1 -11 -32 -42 -41 -42 -4 0
-5 7 -1 15 4 10 -3 17 -22 21 -15 3 -37 9 -49 14 -26 11 -31 -6 -13 -40 6 -12
6 -27 1 -42 -10 -23 -12 -18 -15 29 0 12 -4 24 -9 27 -4 3 -5 3 -2 -1 3 -4 -5
-13 -17 -20 -13 -7 -17 -12 -10 -13 7 0 10 -5 7 -10 -3 -6 -1 -10 4 -10 6 0
11 -4 11 -8 0 -11 -84 -6 -126 8 -40 13 -49 46 -10 36 20 -5 23 -3 19 14 -6
22 -23 38 -23 21 0 -12 -80 -51 -104 -51 -8 0 -19 7 -24 16 -12 21 -32 10 -32
-17 0 -12 4 -17 11 -13 7 4 10 1 7 -7 -3 -8 -19 -14 -39 -14 -19 0 -44 -6 -55
-12 -12 -7 -55 -17 -95 -24 -41 -6 -90 -18 -109 -28 -48 -23 -104 -15 -108 17
-2 12 -8 22 -13 22 -6 0 -7 5 -3 11 3 6 15 9 25 6 11 -3 19 -1 19 3 0 4 9 6
20 3 11 -3 27 1 36 8 9 7 22 14 29 15 8 1 24 11 36 23 25 23 35 26 44 11 3 -5
11 -10 16 -10 6 0 7 5 4 10 -3 6 -3 10 2 11 4 0 17 3 28 5 51 13 105 13 105 1
1 -7 6 -5 14 5 7 10 26 18 44 18 17 0 37 7 46 15 10 10 17 12 21 4 9 -13 93
-6 123 10 14 7 29 8 40 3 26 -13 199 -2 302 20 42 9 86 11 125 6 36 -4 72 -2
90 4 20 7 42 7 65 1 38 -11 60 -7 60 8 0 6 -4 8 -8 5 -4 -2 -14 -1 -22 5 -10
6 0 9 33 9 34 0 47 -4 47 -14 0 -8 -6 -16 -12 -19 -7 -2 -9 -8 -5 -13 4 -5 11
-4 15 2 16 23 60 33 177 38 99 4 95 3 95 19 0 8 17 22 38 32 20 10 45 22 54
26 13 7 16 5 12 -5 -7 -17 -32 -28 -46 -20 -5 3 -12 -3 -15 -15 -3 -11 -9 -18
-14 -15 -5 3 -9 -2 -9 -10 0 -12 7 -14 33 -10 17 4 37 13 43 20 6 8 16 14 22
14 6 0 9 6 6 14 -3 7 7 23 21 35 33 25 97 39 103 22 5 -14 29 -14 34 0 3 9 10
9 26 0 14 -8 22 -8 22 -1 0 5 -7 10 -16 10 -8 0 -13 4 -9 10 3 5 11 7 18 5 35
-10 81 -14 67 -6 -12 9 -12 11 3 17 13 5 17 18 17 61 l0 55 -52 -6 c-29 -3
-61 -5 -71 -6 -10 0 -16 -4 -12 -9 7 -12 -22 -20 -55 -17 -14 2 -33 -1 -42 -6
-13 -6 -18 -5 -18 4 0 9 -3 9 -12 0 -7 -7 -27 -12 -45 -12 -17 0 -43 -5 -57
-11 -19 -9 -31 -8 -55 4 -17 9 -29 11 -26 6 7 -10 -5 -12 -47 -9 -15 1 -60 -3
-100 -9 -40 -6 -86 -13 -103 -15 -16 -2 -46 -11 -66 -19 -46 -21 -89 -28 -89
-16 0 5 4 9 9 9 5 0 16 11 25 24 l16 25 -30 -11 c-17 -5 -30 -13 -30 -17 0 -4
-15 -8 -32 -9 -57 -5 -103 -18 -101 -30 3 -14 -40 -26 -67 -19 -11 3 -24 -1
-31 -9 -6 -8 -18 -14 -26 -14 -7 0 -25 -7 -38 -16 -28 -18 -33 -11 -10 12 24
24 17 36 -9 18 -15 -9 -22 -21 -19 -30 3 -9 -2 -14 -17 -14 -22 0 -22 3 12 52
10 15 24 25 31 23 7 -3 18 -1 26 4 18 12 4 54 -16 47 -8 -3 -21 -6 -29 -6 -9
0 -13 -4 -10 -9 3 -5 -20 -12 -51 -16 -31 -4 -62 -9 -70 -12 -7 -3 -13 0 -13
6 0 6 10 11 22 11 20 0 57 10 121 33 28 10 37 26 15 28 -35 3 -83 -4 -86 -12
-2 -5 -16 -9 -30 -9 -15 0 -40 -7 -56 -15 -15 -8 -32 -12 -37 -9 -5 3 -16 -2
-25 -10 -9 -9 -20 -13 -26 -10 -6 4 -5 9 3 15 28 17 0 19 -62 5 -69 -16 -185
-24 -195 -13 -9 9 -101 -1 -136 -15 -30 -11 -36 -23 -15 -32 6 -3 1 -3 -13 0
-14 4 -29 12 -33 18 -6 7 -7 5 -3 -6 5 -18 -25 -35 -43 -24 -5 4 -32 1 -60 -6
-39 -9 -51 -16 -51 -30 0 -15 -3 -17 -19 -8 -14 7 -22 7 -27 -2 -4 -7 -3 -8 4
-4 7 4 12 2 12 -3 0 -6 -11 -11 -24 -11 -26 0 -47 -19 -24 -21 24 -3 -87 -21
-135 -22 -33 -1 -51 3 -57 13 -5 8 -10 10 -10 4 0 -7 -11 -15 -25 -18 -32 -8
-119 -70 -105 -74 6 -2 22 3 35 12 17 11 26 13 31 4 4 -6 3 -8 -4 -4 -5 3 -12
2 -14 -4 -4 -13 -124 -33 -150 -24 -13 4 -29 -2 -46 -18 -15 -12 -20 -15 -13
-5 19 25 7 33 -16 10 -12 -12 -26 -17 -38 -13 -9 3 -44 2 -76 -3 -68 -11 -119
3 -119 34 0 28 22 34 41 11 20 -25 35 -28 42 -8 4 9 0 12 -12 9 -10 -2 -24 4
-32 13 -13 16 -12 17 5 11 16 -6 17 -5 6 8 -7 9 -16 12 -19 8 -3 -4 -12 -8
-18 -9 -41 -3 -44 -5 -39 -21 3 -10 2 -23 -2 -29 -10 -16 -98 -45 -116 -38 -9
3 -29 -4 -45 -15 -31 -23 -46 -27 -36 -11 3 6 -1 7 -9 4 -9 -3 -14 -11 -13
-17 1 -5 -13 -13 -30 -17 -31 -7 -44 2 -23 15 6 3 10 11 10 18 0 8 -3 8 -11 0
-6 -6 -17 -9 -24 -7 -18 7 -31 -16 -15 -26 17 -10 -45 -50 -76 -50 -12 0 -27
-7 -34 -15 -7 -8 -17 -12 -24 -8 -6 4 -19 6 -28 5 -24 -4 -23 15 2 28 15 8 20
8 20 -1 0 -14 14 -3 16 12 3 22 5 23 14 9 7 -12 12 -12 34 0 14 7 26 17 26 22
0 5 -8 5 -17 0 -10 -6 -27 -6 -46 0 l-29 11 27 23 c20 17 25 29 20 41 -7 17
-7 17 -14 0 -4 -10 -10 -18 -14 -18 -20 2 -25 -1 -35 -23 -8 -18 -8 -26 0 -28
8 -3 7 -11 -4 -27 -16 -23 -36 -13 -22 11 5 8 0 9 -17 4 -25 -8 -52 -13 -80
-15 -9 0 -20 -8 -23 -17 -3 -8 -2 -12 4 -9 6 3 10 1 10 -5 0 -6 4 -9 9 -6 16
10 39 -5 36 -22 -2 -9 -4 -20 -4 -24 -1 -3 -9 -4 -20 -1 -11 3 -24 -3 -32 -14
-8 -11 -22 -22 -31 -26 -9 -3 -16 -15 -15 -25 1 -13 6 -18 15 -14 10 3 13 0
10 -9 -6 -20 -99 -65 -123 -61 -11 2 -26 9 -34 15 -11 10 -13 7 -6 -13 10 -33
10 -33 33 -21 11 6 23 6 28 1 13 -13 124 41 122 60 -1 8 3 25 10 36 6 12 8 24
4 28 -3 4 0 11 8 16 27 17 37 11 32 -18 -4 -24 -3 -25 9 -11 8 8 27 23 43 33
24 16 30 16 43 4 23 -23 5 -50 -31 -46 -20 1 -30 -2 -29 -10 2 -7 -2 -12 -7
-12 -6 0 -10 -5 -10 -11 0 -18 -34 -54 -53 -57 -10 -2 -25 2 -33 9 -10 8 -14
8 -14 0 0 -6 5 -11 12 -11 6 0 3 -9 -8 -21 -11 -12 -26 -18 -38 -15 -20 5 -56
-9 -68 -28 -6 -8 -8 -8 -8 1 0 6 -13 10 -29 9 -17 -1 -28 1 -26 5 3 3 -9 9
-26 13 -47 9 -55 7 -34 -7 32 -24 -1 -43 -45 -27 -3 2 -9 2 -13 1 -5 -1 -26 4
-48 10 -35 11 -41 10 -54 -7 -13 -18 -14 -18 -8 3 3 13 8 23 12 23 9 0 7 57
-2 67 -5 4 -15 -1 -22 -11 -13 -17 -18 -17 -45 -6 -31 13 -36 34 -9 36 26 2
59 16 59 25 0 12 -17 11 -25 -1 -3 -5 -14 -10 -23 -10 -15 1 -15 2 1 11 10 6
32 15 49 19 24 8 29 6 24 -5 -7 -19 -7 -19 45 5 24 11 61 20 82 20 20 0 37 4
37 9 0 6 18 9 40 8 22 -1 40 -5 40 -10 0 -5 -13 -7 -30 -4 -26 6 -32 2 -45
-23 -19 -37 -19 -40 5 -40 11 0 25 9 32 20 7 11 16 20 21 20 4 0 6 -4 3 -9 -3
-5 0 -11 8 -14 9 -4 12 0 9 11 -5 20 22 60 33 49 5 -4 2 -12 -6 -17 -12 -7
-12 -12 -3 -21 9 -9 18 -8 37 5 32 20 33 32 4 40 l-23 7 23 9 c12 5 22 13 22
19 0 5 9 11 20 14 13 3 18 10 14 21 -3 9 -10 13 -15 10 -5 -3 -9 0 -9 5 0 6 7
11 16 11 8 0 12 5 9 10 -5 8 -11 7 -21 -1 -11 -9 -18 -8 -30 2 -14 12 -14 14
3 21 11 5 -3 7 -35 5 -29 -3 -50 -1 -45 4 4 4 51 10 103 13 132 8 128 7 145
43 16 32 50 50 87 44 9 -1 43 10 75 26 70 33 118 41 109 17 -3 -9 -6 -20 -6
-26 0 -6 -6 -8 -14 -5 -8 3 -17 3 -21 -1 -4 -4 -10 -7 -13 -7 -4 -1 -17 -7
-30 -14 -13 -7 -30 -10 -38 -7 -18 7 -18 3 4 -22 15 -17 27 -20 66 -17 45 5
82 25 69 39 -4 3 0 6 7 6 9 0 11 10 7 35 -5 32 -4 35 19 35 14 0 42 9 64 20
56 28 69 25 27 -7 -43 -33 -46 -43 -10 -37 35 7 43 12 43 31 0 11 6 14 20 10
17 -4 20 -2 15 14 -5 15 -1 19 17 19 13 0 29 4 37 9 11 7 7 13 -20 24 -19 9
-27 16 -19 16 8 1 32 -8 53 -19 40 -22 82 -26 92 -10 8 13 52 13 57 1 2 -6 41
3 88 19 96 33 202 42 180 15 -7 -9 -8 -15 -2 -15 29 0 18 64 -18 101 -8 9 -33
38 -55 65 -22 27 -65 75 -95 109 -53 58 -40 53 25 -10 47 -45 98 -85 108 -85
5 0 -6 18 -25 41 -18 22 -52 64 -75 92 -50 61 -77 106 -39 65 26 -29 43 -37
30 -15 -4 6 2 3 14 -7 25 -21 31 -36 7 -16 -30 25 -14 -6 25 -48 22 -24 44
-40 50 -37 12 8 42 -13 35 -25 -2 -4 2 -16 10 -26 15 -18 15 -18 8 1 -5 15 3
12 34 -15 23 -19 40 -42 40 -50 -1 -8 4 -14 10 -13 7 2 13 -2 13 -8 0 -5 5 -7
11 -3 7 4 -9 26 -42 58 -30 28 -79 78 -109 111 l-54 60 64 -61 c78 -73 135
-125 174 -160 15 -14 25 -28 21 -32 -4 -4 -13 2 -21 13 -13 17 -16 18 -24 5
-14 -22 -12 -30 5 -24 8 4 15 1 15 -6 0 -6 5 -8 12 -4 7 4 50 6 97 5 172 -6
341 3 373 20 11 6 33 7 50 4 20 -5 33 -3 38 6 5 8 33 13 72 15 35 1 99 4 143
8 44 3 119 9 168 12 48 3 90 10 93 15 3 5 23 9 44 9 21 0 41 4 44 8 3 5 -10 8
-29 7 -23 -2 -44 4 -60 17 -14 11 -29 16 -35 13 -6 -4 -9 -1 -8 7 2 8 -8 14
-25 16 -22 3 -27 7 -22 23 4 11 2 19 -4 19 -6 0 -11 -4 -11 -10 0 -18 -29 -10
-35 9 -6 20 -14 24 -72 36 -18 4 -33 11 -33 16 0 6 -4 8 -9 5 -5 -3 -11 0 -14
8 -3 9 -16 13 -31 12 -22 -3 -32 5 -23 17 6 9 -27 37 -39 33 -14 -5 -57 37
-47 47 3 4 0 7 -7 7 -11 0 -11 3 -2 12 17 17 15 28 -7 28 -10 0 -24 7 -32 16
-10 13 -10 17 2 25 11 7 9 9 -7 9 -16 0 -23 8 -28 32 -6 32 -16 33 -20 2 -2
-10 -8 -20 -15 -22 -10 -3 -11 4 -6 27 4 17 3 31 -3 31 -5 0 -13 19 -18 42 -7
31 -14 43 -27 42 -28 -3 -19 14 23 42 29 19 48 25 68 21 16 -3 34 -1 40 5 8 8
15 8 27 -2 13 -10 15 -9 15 8 0 25 23 31 70 19 19 -5 56 -7 82 -4 31 4 48 2
52 -6 3 -9 8 -8 15 3 10 13 12 13 21 0 7 -11 8 -6 4 18 -5 27 -4 31 9 26 10
-3 20 2 26 15 12 22 1 34 -23 25 -9 -3 -16 -1 -16 5 0 6 16 11 35 11 30 0 34
3 32 23 -2 18 2 21 22 19 15 -2 21 0 16 7 -8 14 5 19 83 29 63 9 64 9 59 -15
-3 -15 0 -23 9 -23 8 0 14 7 14 15 0 8 5 15 10 15 6 0 10 -8 10 -17 0 -13 3
-14 11 -6 6 6 18 9 25 6 8 -3 21 0 29 7 14 11 19 7 16 -12 0 -5 5 -8 13 -8 7
0 19 -6 25 -14 7 -8 20 -12 29 -9 10 2 31 -7 47 -21 17 -14 37 -26 45 -26 11
0 12 -2 2 -8 -9 -7 -8 -13 8 -27 13 -11 20 -14 20 -6 0 7 6 11 12 9 8 -3 12
-19 10 -42 -3 -26 0 -36 7 -32 6 4 11 14 11 22 0 8 5 14 10 14 6 0 10 -5 10
-11 0 -13 25 -39 38 -39 13 0 22 -39 11 -46 -19 -11 -8 -24 21 -24 17 0 30 5
30 11 0 5 5 7 11 3 6 -4 7 -9 2 -13 -5 -3 -9 -36 -8 -72 0 -56 -2 -65 -16 -62
-11 3 -18 -4 -22 -23 -6 -35 2 -57 19 -50 8 3 14 0 14 -6 0 -6 -11 -8 -30 -5
-17 4 -30 2 -30 -3 0 -6 7 -10 16 -10 10 0 14 -6 11 -15 -4 -8 -2 -17 3 -20
19 -12 10 -22 -14 -18 -24 5 -25 4 -15 -32 12 -41 6 -65 -13 -65 -9 0 -8 3 2
10 8 5 10 10 4 10 -16 0 -23 -10 -18 -25 3 -7 14 -11 25 -8 10 3 19 0 19 -6 0
-6 -7 -11 -15 -11 -9 0 -15 -10 -16 -22 -1 -22 -1 -22 -9 2 l-8 25 -1 -27 c-1
-22 4 -28 19 -28 11 0 20 7 20 15 0 8 4 15 10 15 5 0 7 -6 4 -14 -4 -10 7 -14
43 -15 59 -1 113 16 113 35 0 17 17 19 22 2 5 -14 36 -18 163 -18 126 0 154 3
240 28 46 13 74 17 82 10 6 -5 27 -8 45 -6 l33 3 3 705 c1 388 0 720 -3 739
-5 25 -9 31 -18 22 -17 -17 -22 -14 -37 25 -12 29 -18 34 -36 30 -18 -5 -26 0
-38 25 -8 16 -12 37 -9 46 5 12 3 14 -7 8 -10 -6 -12 -1 -7 22 5 24 0 37 -23
64 -16 19 -34 40 -40 47 -7 8 -7 12 0 12 5 0 10 7 10 15 0 8 -9 15 -20 15 -13
0 -22 9 -26 25 -3 14 -10 25 -16 25 -5 0 -7 4 -4 9 6 10 -19 90 -41 134 -14
27 -14 29 7 34 21 6 20 7 -11 17 -27 9 -35 17 -37 41 -4 47 -23 75 -49 75 -13
0 -23 5 -23 11 0 7 10 9 25 5 19 -5 23 -3 19 9 -3 8 -10 12 -15 9 -5 -3 -14
-2 -21 2 -8 5 -6 11 6 20 16 11 15 13 -6 29 -20 15 -20 17 -3 11 18 -5 17 -4
-2 10 -13 9 -23 22 -23 28 0 13 -90 50 -99 40 -3 -4 0 -9 7 -11 18 -7 15 -23
-5 -23 -15 0 -16 -2 -3 -10 8 -5 30 -10 48 -10 26 0 32 -4 32 -21 0 -16 -4
-19 -17 -14 -37 16 -58 11 -56 -12 3 -27 -3 -29 -23 -8 -8 8 -30 14 -48 13
-18 -1 -41 4 -52 10 -19 11 -19 11 1 13 13 1 10 3 -9 8 -37 8 -44 39 -10 47
13 3 24 13 24 22 0 12 -3 13 -12 4 -7 -7 -16 -12 -20 -12 -13 0 -9 28 5 33 6
2 9 8 5 11 -3 4 -16 -2 -28 -14 -11 -11 -25 -18 -30 -15 -5 3 -12 0 -16 -6 -4
-8 -3 -9 4 -5 6 3 16 -3 22 -14 9 -17 8 -20 -10 -20 -12 0 -18 5 -15 10 3 6
-1 10 -10 10 -9 0 -13 -4 -10 -10 3 -5 -1 -10 -9 -10 -9 0 -16 8 -16 19 0 21
-46 56 -55 42 -3 -5 -1 -12 5 -16 5 -3 10 -13 10 -21 0 -8 -4 -12 -10 -9 -5 3
-19 1 -31 -5 -23 -13 -69 -6 -69 10 0 6 11 8 24 4 13 -3 27 -1 31 5 3 6 11 9
16 6 5 -4 9 3 9 14 0 12 -7 21 -15 21 -8 0 -15 4 -15 10 0 5 6 7 14 4 8 -3 16
4 19 17 8 31 -1 38 -19 15 -12 -18 -19 -15 -15 7 0 4 -4 7 -11 7 -9 0 -9 3 0
12 17 17 15 58 -2 58 -9 0 -12 -7 -9 -20 5 -19 -11 -28 -21 -12 -10 17 7 52
25 52 11 0 19 5 19 10 0 6 -10 8 -23 5 -15 -4 -28 -1 -36 9 -11 13 -11 16 2
16 10 0 13 6 10 18 -3 14 -11 18 -29 14 -14 -2 -24 0 -24 7 0 6 5 11 11 11 7
0 8 11 4 31 -7 29 -5 31 14 26 11 -3 21 -3 21 0 0 11 -48 61 -54 56 -3 -3 -1
-12 5 -20 9 -10 8 -13 -5 -13 -9 0 -16 7 -16 17 0 14 -3 14 -22 -3 -15 -12
-14 -8 5 12 15 16 27 38 27 48 0 16 1 16 16 2 20 -21 28 -20 20 0 -7 18 11 36
59 60 149 75 164 91 54 57 -30 -9 -63 -17 -74 -19 -30 -4 -49 -9 -62 -17 -6
-4 -19 -4 -28 -1 -10 4 -15 2 -13 -7 2 -7 -6 -14 -17 -16 -17 -4 -18 -2 -5 7
12 10 11 11 -5 5 -11 -4 -42 -10 -70 -12 -44 -5 -48 -4 -35 9 8 9 41 26 73 39
57 23 58 24 30 31 -15 5 -36 6 -45 4 -23 -5 -23 10 0 23 15 9 14 10 -6 11 -12
0 -35 8 -49 18 -19 12 -25 13 -19 3 6 -9 3 -18 -9 -27 -16 -12 -21 -11 -37 2
-15 14 -20 15 -35 3 -9 -8 -14 -9 -12 -4 3 6 -2 18 -12 27 -11 10 -19 12 -21
6 -6 -17 -46 1 -53 23 -6 17 -19 23 -52 22 -7 -1 -10 3 -7 9 3 5 -5 6 -20 2
-17 -4 -26 -2 -26 6 0 8 -9 10 -25 6 -14 -4 -34 -2 -44 4 -14 7 -30 5 -63 -10
-23 -11 -60 -20 -81 -20 -24 0 -36 -4 -35 -12 2 -7 -4 -12 -13 -10 -17 2 -94
-26 -87 -33 2 -2 39 1 82 6 44 6 89 8 100 6 14 -3 10 -5 -11 -6 -17 0 -35 -5
-38 -11 -3 -5 -28 -10 -54 -10 -27 0 -63 -3 -82 -7 -28 -5 -30 -7 -14 -15 14
-6 9 -7 -20 -5 -35 2 -40 -1 -40 -20 0 -23 6 -23 68 -6 9 2 17 0 17 -6 0 -6
-9 -11 -19 -11 -25 0 -36 -16 -16 -24 8 -3 15 -2 15 3 0 5 11 11 23 13 15 3
24 0 24 -9 0 -7 -4 -13 -9 -13 -5 0 -6 -5 -2 -11 3 -6 17 -9 30 -6 13 2 24 0
24 -4 0 -12 -41 -11 -59 0 -7 5 -10 14 -7 20 9 14 -7 14 -20 1 -8 -8 -19 -8
-38 0 -34 13 -46 13 -46 0 0 -5 -10 -20 -22 -33 -42 -44 -63 -73 -64 -85 -1
-7 -2 -19 -2 -27 -1 -8 -8 -15 -15 -15 -9 0 -14 -15 -16 -47 -1 -26 -6 -50
-12 -53 -5 -4 -10 -15 -10 -26 1 -10 1 -36 1 -57 0 -21 4 -35 9 -32 5 2 11 -2
14 -10 4 -9 1 -12 -7 -9 -23 9 -29 -16 -10 -32 11 -9 14 -13 8 -10 -16 8 -36
-18 -28 -37 3 -8 15 -17 26 -20 12 -4 17 -10 13 -17 -6 -9 -2 -9 13 -1 10 6
30 8 42 6 13 -3 29 0 36 5 8 7 13 6 18 -5 5 -13 -14 -20 -45 -17 -3 1 -6 -8
-5 -19 0 -10 4 -19 9 -19 4 0 12 0 18 0 5 0 7 5 3 11 -4 8 0 7 15 -1 12 -6 19
-16 14 -23 -5 -8 -8 -8 -11 1 -2 7 -8 9 -14 6 -5 -3 -2 -14 9 -26 13 -15 15
-22 5 -25 -6 -3 -10 -9 -6 -14 3 -5 -3 -9 -13 -9 -15 0 -19 7 -17 30 2 33 -12
48 -29 31 -13 -13 -47 -15 -47 -2 0 6 10 17 22 25 26 18 18 32 -10 17 -11 -6
-22 -7 -26 -4 -3 3 -6 1 -6 -5 0 -7 -11 -12 -25 -12 -14 0 -25 -4 -25 -9 0 -5
9 -7 20 -4 24 6 27 -12 4 -25 -15 -8 -15 -10 1 -15 25 -10 9 -25 -20 -19 -20
3 -23 7 -14 18 19 23 0 37 -27 20 -26 -18 -69 -22 -59 -6 12 19 -23 10 -36 -9
-8 -11 -31 -22 -53 -26 -51 -7 -61 -14 -40 -30 30 -22 10 -46 -35 -43 -25 1
-47 -4 -58 -14 -25 -22 -99 -58 -118 -58 -9 0 -15 -7 -13 -17 2 -10 -7 -22
-21 -29 -14 -7 -26 -20 -27 -30 -4 -26 -33 -40 -71 -35 -14 2 -59 -57 -55 -71
1 -5 -1 -7 -6 -4 -8 5 -75 -60 -132 -128 l-25 -30 30 18 c33 21 30 16 -34 -40
-40 -36 -43 -37 -36 -14 4 14 20 39 35 55 15 17 30 38 33 48 5 14 -1 12 -31
-10 -45 -33 -81 -73 -82 -91 0 -7 -4 -11 -8 -8 -5 3 -9 -1 -9 -9 0 -18 18 -19
37 -2 8 7 7 2 -3 -13 -35 -52 -38 -60 -24 -54 8 3 19 15 24 27 10 22 48 34 57
18 3 -4 -10 -23 -29 -41 -19 -19 -35 -30 -35 -26 0 5 -16 -4 -36 -19 l-36 -28
7 24 c4 13 13 31 19 39 10 13 9 13 -9 0 -11 -8 -26 -23 -33 -33 -7 -9 -18 -14
-24 -11 -7 4 -8 2 -4 -4 4 -6 2 -21 -4 -32 -6 -12 -9 -26 -7 -33 2 -7 11 3 21
21 12 23 22 31 34 28 10 -3 44 13 82 39 36 24 66 40 68 35 4 -12 62 17 62 30
0 5 10 9 22 7 15 -1 23 3 23 15 0 10 3 18 7 18 4 0 23 16 42 35 23 23 41 33
51 29 11 -5 18 0 22 15 3 11 9 21 15 21 5 0 4 -9 -2 -20 -8 -16 -8 -22 4 -26
11 -4 5 -14 -22 -38 -20 -18 -46 -36 -56 -40 -18 -6 -19 -6 -4 11 9 10 19 29
23 43 5 21 -1 17 -34 -20 -44 -50 -50 -62 -23 -53 9 3 0 -11 -21 -31 -21 -20
-42 -34 -47 -31 -18 11 -22 -19 -5 -31 18 -14 40 -9 30 6 -3 4 12 20 32 36 29
22 35 24 30 9 -6 -15 -5 -16 8 -5 8 7 13 15 11 19 -3 4 5 13 17 21 21 12 21
12 7 -5 -11 -13 -1 -11 35 10 28 16 54 32 60 37 5 4 13 8 18 8 18 0 -8 -22
-86 -74 -45 -30 -102 -72 -127 -93 -25 -22 -53 -42 -63 -46 -37 -14 -48 -95
-19 -146 14 -26 22 -30 41 -26 33 8 99 64 166 140 57 66 174 165 194 165 6 0
11 7 11 15 0 23 -24 18 -50 -10 -13 -14 -26 -25 -29 -25 -8 0 -6 129 2 137 4
3 7 -2 8 -13 0 -10 9 6 19 36 23 66 23 63 8 54 -8 -5 -9 -2 -5 10 4 10 7 20 7
22 0 2 8 4 18 4 12 0 13 -3 5 -8 -9 -5 -10 -17 -4 -37 5 -17 10 -25 10 -18 1
7 8 10 16 7 9 -4 15 0 16 7 2 45 10 74 23 88 14 13 16 13 16 1 1 -11 5 -10 16
5 l16 20 -4 -20 c-2 -11 2 -24 9 -30 9 -8 5 -18 -19 -44 -24 -26 -32 -31 -39
-20 -7 11 -9 11 -9 -3 0 -9 5 -18 12 -20 8 -3 4 -16 -12 -43 -22 -35 -24 -36
-37 -19 -11 15 -13 15 -13 2 0 -8 -7 -21 -15 -28 -11 -9 -13 -16 -6 -23 7 -7
17 -4 32 9 19 17 21 18 30 1 6 -9 21 -17 35 -17 34 0 84 27 84 45 0 19 16 19
24 0 3 -8 12 -15 21 -15 8 0 14 -5 12 -11 -3 -17 62 -23 80 -8 10 9 13 23 10
46 -7 40 9 35 18 -6 6 -30 27 -42 80 -45 28 -1 30 2 36 44 4 30 7 35 7 17 2
-20 8 -31 22 -34 11 -3 17 -9 15 -14 -3 -4 3 -8 12 -8 10 0 27 -1 38 -3 18 -3
20 2 17 36 -3 33 -1 38 11 28 8 -7 17 -9 20 -5 4 3 7 1 7 -5 0 -7 7 -12 15
-12 26 0 16 -21 -15 -31 -16 -6 -28 -16 -27 -22 1 -6 -5 -12 -13 -12 -8 -1
-28 -5 -44 -9 -19 -6 -36 -5 -47 2 -14 9 -28 8 -61 -7 -24 -10 -48 -16 -55
-14 -6 2 -45 -24 -85 -57 -40 -34 -110 -90 -155 -123 -45 -34 -80 -63 -78 -66
10 -10 138 65 173 101 20 22 46 44 57 50 11 6 0 -11 -25 -37 -61 -63 -169
-127 -234 -136 -28 -5 -62 -11 -76 -14 -24 -6 -24 -6 -6 9 11 9 27 16 36 16
25 0 124 68 225 154 101 86 124 104 144 116 9 5 10 13 5 23 -8 12 -19 8 -71
-27 -34 -22 -86 -62 -115 -88 -123 -108 -300 -229 -315 -214 -3 2 18 16 46 31
29 14 93 60 144 103 51 43 108 88 127 102 64 44 76 71 30 65 -28 -3 -165 -100
-205 -145 -24 -27 -171 -142 -202 -159 -43 -22 -47 -10 -5 14 54 31 82 53 152
118 122 115 172 157 189 157 20 0 61 40 61 59 0 7 -15 1 -37 -14 -21 -14 -47
-25 -58 -25 -33 -1 -56 -18 -229 -180 -91 -85 -171 -157 -178 -159 -7 -2 -24
-11 -38 -21 -14 -9 -56 -29 -95 -45 -38 -15 -99 -40 -135 -55 -36 -15 -74 -30
-84 -34 -10 -3 -17 -9 -14 -12 3 -2 72 23 154 57 82 33 164 65 182 71 36 10
58 3 26 -8 -10 -4 -83 -33 -162 -66 -78 -32 -146 -58 -150 -58 -10 0 -246
-100 -252 -107 -8 -9 40 7 120 39 136 55 303 118 312 118 5 0 28 9 51 21 23
11 62 24 87 29 25 5 54 12 65 15 16 5 17 5 4 -4 -8 -5 -85 -35 -170 -66 -198
-71 -390 -147 -385 -152 2 -2 88 28 191 67 103 39 192 69 198 67 6 -2 -3 -8
-19 -15 -342 -134 -378 -146 -446 -143 -30 1 -57 -4 -72 -15 -35 -22 -89 -22
-111 0 -13 13 -27 16 -48 12 -16 -3 -33 -6 -37 -6 -4 0 -4 -21 0 -48 5 -26 6
-50 4 -53 -2 -4 3 -12 11 -19 24 -20 73 -4 172 55 89 53 143 77 75 34 -53 -35
-29 -33 32 2 32 17 59 30 61 27 4 -4 -69 -48 -265 -159 -98 -56 -161 -71 -190
-44 -16 14 -19 28 -16 72 2 31 11 63 21 76 10 12 -4 -1 -31 -29 -27 -28 -57
-69 -68 -90 -10 -21 -22 -47 -27 -56 -13 -26 -11 -64 5 -77 25 -21 91 5 251
97 185 106 561 294 715 357 95 39 127 48 185 50 39 1 79 5 90 9 11 4 7 0 -9
-9 -21 -13 -41 -16 -76 -11 -31 4 -56 2 -76 -8 -16 -7 -63 -26 -104 -41 -99
-38 -598 -286 -730 -365 -58 -34 -100 -60 -94 -58 5 1 125 60 265 130 210 104
576 274 653 301 15 6 17 4 11 -10 -5 -10 -10 -33 -13 -52 l-5 -34 52 6 c52 6
80 22 281 159 103 70 180 119 180 113 0 -3 -51 -39 -112 -80 -62 -40 -149 -99
-193 -129 -44 -31 -105 -63 -135 -72 -30 -9 -58 -22 -62 -28 -5 -7 -8 -4 -8 7
0 10 -3 17 -7 15 -5 -2 -100 -49 -213 -105 -113 -56 -279 -134 -370 -172 -194
-81 -305 -133 -270 -126 21 5 22 4 7 -5 -9 -6 -21 -9 -26 -6 -4 3 -63 -15
-129 -39 -173 -64 -174 -55 -2 14 80 32 188 77 240 100 52 24 154 70 226 102
73 32 134 59 137 59 3 0 93 43 201 95 169 83 196 99 195 118 -1 12 2 30 6 40
9 21 9 21 -140 -48 -44 -21 -143 -66 -220 -102 -77 -36 -248 -119 -380 -185
-132 -66 -264 -131 -292 -144 -87 -38 -60 -16 33 28 88 41 114 64 30 27 -26
-11 -61 -19 -79 -18 -18 2 -49 -5 -69 -16 -21 -10 -41 -16 -44 -12 -4 4 9 26
29 50 29 36 67 106 67 124 0 8 -69 -77 -103 -127 -17 -25 -31 -47 -30 -50 0
-3 -2 -11 -5 -19 -3 -7 1 -17 9 -21 7 -5 10 -12 6 -16 -4 -4 -15 -1 -24 8 -21
22 -12 53 32 111 20 26 33 47 29 47 -13 0 -102 -89 -95 -95 3 -4 1 -6 -4 -5
-24 5 -36 -3 -86 -61 -31 -36 -54 -73 -55 -88 -1 -14 -3 -28 -3 -30 -1 -2 -7
2 -15 9 -18 14 -11 36 23 74 l26 30 -30 -18 c-16 -10 -40 -28 -52 -38 -12 -11
-26 -17 -33 -13 -6 3 -9 2 -8 -3 2 -6 -23 -35 -56 -65 -44 -42 -57 -60 -54
-75 4 -15 2 -19 -8 -15 -17 6 -17 11 0 45 15 28 11 43 -8 28 -60 -48 -85 -74
-79 -83 3 -5 1 -7 -4 -4 -6 4 -19 -3 -29 -15 -19 -21 -19 -21 4 -16 25 7 30
-7 6 -16 -26 -10 -34 -7 -34 13 0 21 81 97 166 156 72 50 85 55 59 24 l-20
-24 22 19 c13 10 20 23 17 27 -3 5 7 14 23 20 15 5 30 14 33 18 3 4 23 18 45
31 44 26 110 75 193 142 113 91 161 135 205 188 26 30 60 68 76 84 17 16 40
47 51 69 26 49 112 167 123 167 5 0 5 -4 2 -10 -19 -31 71 1 251 90 l204 101
0 34 0 35 -35 -17 c-19 -9 -32 -20 -29 -25 5 -7 -10 -12 -28 -9 -5 0 -8 -5 -8
-12 0 -8 -14 -26 -30 -40 -17 -15 -30 -24 -30 -21 0 4 -8 0 -18 -8 -46 -41
-234 -110 -251 -92 -6 6 61 74 123 127 31 26 51 37 54 29 6 -20 31 -14 134 36
86 41 98 50 93 67 -4 11 -7 25 -7 32 -1 7 -5 10 -10 7 -5 -4 -7 -12 -5 -18 3
-7 1 -19 -4 -27 -7 -11 -9 -11 -9 -1 0 7 -10 2 -22 -13 -20 -22 -125 -61 -136
-50 -2 2 35 35 82 74 47 39 92 81 100 93 9 12 16 18 16 13 1 -6 8 2 16 18 8
15 20 27 26 27 7 0 6 -5 -2 -15 -22 -27 -5 -25 24 2 18 16 26 32 23 44 -3 11
-2 17 3 14 4 -3 13 9 20 25 7 16 25 35 41 42 16 7 29 19 29 27 0 17 48 60 77
67 27 7 37 32 21 53 -12 14 -11 15 5 2 15 -12 19 -12 31 4 8 12 18 15 27 10 8
-5 11 -5 8 -1 -8 9 38 61 55 61 19 1 66 53 53 60 -7 3 -2 3 10 1 18 -3 20 -1
13 18 -4 12 -16 21 -28 20 -12 0 -19 3 -16 8 9 15 33 8 48 -14 12 -17 18 -20
28 -10 7 7 9 12 4 12 -4 0 -1 7 8 15 8 8 19 15 25 15 6 0 8 7 5 15 -4 10 -13
13 -26 9 -14 -4 -18 -2 -14 5 13 20 -5 11 -24 -11 -17 -21 -19 -22 -25 -5 -6
14 -10 15 -23 5 -12 -10 -16 -10 -19 0 -3 6 -11 12 -19 12 -9 0 -12 -4 -9 -10
3 -5 -3 -10 -14 -10 -12 0 -21 5 -21 10 0 6 -7 10 -15 10 -9 0 -15 -9 -15 -22
0 -20 -1 -21 -20 -3 -25 22 -90 30 -90 11 0 -8 -10 -13 -25 -12 -14 0 -25 6
-25 13 0 7 7 10 15 7 9 -4 15 0 15 9 0 8 -9 17 -20 20 -16 4 -20 0 -20 -19 0
-29 -16 -32 -23 -4 -3 11 -12 20 -21 20 -9 0 -16 5 -16 10 0 6 12 8 28 5 22
-4 21 -3 -8 10 -19 8 -43 18 -53 21 -13 5 -15 10 -6 20 8 10 5 15 -14 20 -16
3 -24 11 -20 19 2 8 -3 24 -12 37 -11 14 -15 17 -12 6 4 -10 2 -20 -2 -23 -5
-2 -12 7 -16 22 -5 21 -8 24 -16 12 -7 -12 -9 -11 -9 4 0 9 -5 17 -11 17 -6 0
-9 7 -5 15 7 18 -27 55 -50 55 -8 0 -12 5 -9 10 4 6 1 17 -5 25 -7 8 -9 15 -5
15 5 0 0 9 -10 20 -9 10 -15 26 -12 34 4 11 1 13 -10 9 -12 -5 -14 -3 -8 7 5
8 10 24 11 37 2 19 -2 23 -27 23 -29 0 -41 22 -19 35 6 3 10 1 10 -4 0 -6 5
-11 10 -11 15 0 12 17 -6 35 -15 14 -17 14 -30 -2 -13 -17 -13 -17 -14 3 0 13
8 24 20 27 11 3 20 12 20 21 0 10 -6 13 -15 10 -11 -5 -15 1 -15 24 0 17 -5
32 -12 34 -6 2 -9 9 -7 15 7 20 49 -5 49 -29 1 -17 5 -12 15 17 16 44 12 58
-9 30 -13 -18 -14 -18 -21 4 -5 16 -3 26 6 32 11 6 11 11 2 20 -15 15 -33 3
-33 -22 0 -10 -6 -19 -14 -19 -13 0 -13 4 0 29 8 15 16 42 18 58 2 25 0 30
-15 26 -11 -3 -19 -1 -19 3 0 10 101 37 108 29 3 -3 -2 -5 -11 -5 -10 0 -17
-4 -17 -10 0 -5 9 -10 20 -10 11 0 20 7 20 15 0 20 19 19 42 -2 10 -9 21 -13
26 -8 4 4 2 10 -5 12 -10 4 -10 7 0 17 14 15 40 9 31 -6 -5 -7 5 -9 25 -6 17
2 31 0 31 -5 0 -5 9 -7 20 -4 13 3 28 -2 40 -16 17 -18 20 -18 20 -4 0 10 11
19 28 23 15 3 37 10 49 16 12 6 31 8 42 5 12 -3 19 -1 15 5 -3 5 3 12 15 15
21 5 30 23 11 23 -15 0 -12 27 3 33 7 2 30 3 52 2 22 -2 34 -1 27 2 -10 4 -8
9 7 20 12 8 25 12 30 8 5 -3 16 4 24 16 8 11 17 15 19 9 2 -6 12 -3 26 10 12
12 27 18 32 15 6 -3 10 1 10 9 0 8 -7 19 -16 24 -10 6 -17 25 -18 52 -1 26 -9
47 -19 55 -24 17 -21 43 6 48 l22 4 -23 8 c-20 7 -23 13 -20 40 3 24 0 31 -9
28 -7 -3 -13 2 -13 11 0 9 5 16 12 16 6 0 1 9 -12 20 l-23 20 24 9 c23 9 23
10 -6 11 -29 0 -74 20 -47 20 6 0 12 9 12 20 0 11 7 23 15 26 20 8 19 15 -10
46 -22 24 -24 30 -13 48 16 26 24 25 32 -2 7 -28 22 -15 30 27 4 17 3 24 0 18
-8 -18 -34 -16 -34 2 0 9 10 19 22 24 l22 8 -22 5 c-31 8 -30 48 1 49 18 1 19
2 4 6 -26 7 -67 44 -67 60 0 11 -172 13 -960 13 l-960 0 0 -2215z m1980 1659
c0 -8 -5 -12 -10 -9 -6 4 -8 11 -5 16 9 14 15 11 15 -7z m1073 -281 c-7 -2
-19 -2 -25 0 -7 3 -2 5 12 5 14 0 19 -2 13 -5z m-1263 -23 c0 -5 -5 -10 -11
-10 -5 0 -7 5 -4 10 3 6 8 10 11 10 2 0 4 -4 4 -10z m-45 -10 c3 -5 1 -10 -4
-10 -6 0 -11 5 -11 10 0 6 2 10 4 10 3 0 8 -4 11 -10z m1243 -26 c-10 -9 -58
-12 -58 -3 0 5 14 9 32 9 17 0 29 -3 26 -6z m-43 -34 c-3 -5 -13 -10 -21 -10
-8 0 -12 5 -9 10 3 6 13 10 21 10 8 0 12 -4 9 -10z m-1588 -26 c-3 -3 -12 -4
-19 -1 -8 3 -5 6 6 6 11 1 17 -2 13 -5z m1963 -4 c0 -5 -5 -10 -11 -10 -5 0
-7 5 -4 10 3 6 8 10 11 10 2 0 4 -4 4 -10z m-71 -39 c-15 -5 -22 6 -14 19 6 9
10 9 16 -1 5 -8 4 -15 -2 -18z m-44 -1 c-3 -5 -10 -10 -16 -10 -5 0 -9 5 -9
10 0 6 7 10 16 10 8 0 12 -4 9 -10z m-330 -21 c10 -15 2 -19 -24 -12 -17 4
-19 8 -9 14 18 12 26 11 33 -2z m694 1 c11 0 9 -4 -5 -15 -18 -14 -18 -14 6
-16 14 -1 30 0 35 1 6 1 8 -1 5 -3 -3 -3 -9 -6 -13 -6 -4 0 -20 -10 -35 -22
-25 -20 -27 -20 -31 -2 -7 39 -21 45 -58 23 -40 -24 -54 -25 -47 -6 8 21 86
57 109 51 11 -2 26 -5 34 -5z m-369 -30 c0 -5 -5 -10 -11 -10 -5 0 -7 5 -4 10
3 6 8 10 11 10 2 0 4 -4 4 -10z m-342 -17 c16 -16 16 -16 -1 -10 -10 4 -26 7
-35 7 -15 0 -15 2 -2 10 20 13 19 13 38 -7z m832 -2 c0 -5 -7 -12 -16 -15 -14
-5 -15 -4 -4 9 14 17 20 19 20 6z m-930 -35 c0 -3 -4 -8 -10 -11 -5 -3 -10 -1
-10 4 0 6 5 11 10 11 6 0 10 -2 10 -4z m-10 -46 c0 -5 -8 -10 -17 -10 -15 0
-16 2 -3 10 19 12 20 12 20 0z m935 -10 c3 -5 1 -10 -4 -10 -6 0 -11 5 -11 10
0 6 2 10 4 10 3 0 8 -4 11 -10z m-955 -20 c0 -5 -5 -10 -11 -10 -5 0 -7 5 -4
10 3 6 8 10 11 10 2 0 4 -4 4 -10z m887 -42 c-3 -8 -6 -5 -6 6 -1 11 2 17 5
13 3 -3 4 -12 1 -19z m-887 -22 c0 -3 -4 -8 -10 -11 -5 -3 -10 -1 -10 4 0 6 5
11 10 11 6 0 10 -2 10 -4z m170 -26 c-8 -6 -22 -10 -30 -10 -8 0 -4 6 10 13
27 15 44 12 20 -3z m701 -7 c-12 -20 -14 -14 -5 12 4 9 9 14 11 11 3 -2 0 -13
-6 -23z m53 -1 c3 -5 -1 -9 -9 -9 -8 0 -12 4 -9 9 3 4 7 8 9 8 2 0 6 -4 9 -8z
m-874 -12 c0 -5 -2 -10 -4 -10 -3 0 -8 5 -11 10 -3 6 -1 10 4 10 6 0 11 -4 11
-10z m110 -34 c0 -3 -4 -8 -10 -11 -5 -3 -10 -1 -10 4 0 6 5 11 10 11 6 0 10
-2 10 -4z m790 -15 c0 -6 -4 -13 -10 -16 -5 -3 -10 1 -10 9 0 9 5 16 10 16 6
0 10 -4 10 -9z m-950 -26 c-7 -9 -15 -13 -19 -10 -3 3 1 10 9 15 21 14 24 12
10 -5z m270 -9 c0 -2 -7 -7 -16 -10 -8 -3 -12 -2 -9 4 6 10 25 14 25 6z m700
0 c0 -3 -4 -8 -10 -11 -5 -3 -10 -1 -10 4 0 6 5 11 10 11 6 0 10 -2 10 -4z
m-116 -39 c4 -19 3 -26 -4 -22 -5 3 -10 18 -10 32 0 32 5 28 14 -10z m196 22
c0 -5 -4 -7 -10 -4 -5 3 -10 1 -10 -4 0 -6 -8 -11 -17 -11 -16 1 -16 2 1 15
23 18 36 19 36 4z m-830 -13 c0 -3 -4 -8 -10 -11 -5 -3 -10 -1 -10 4 0 6 5 11
10 11 6 0 10 -2 10 -4z m750 -6 c0 -5 -4 -10 -10 -10 -5 0 -10 5 -10 10 0 6 5
10 10 10 6 0 10 -4 10 -10z m-890 -18 c0 -5 10 -14 23 -19 l22 -11 -25 -10
c-28 -11 -42 -6 -20 8 12 8 12 10 -3 16 -18 7 -23 24 -7 24 6 0 10 -4 10 -8z
m-133 -24 c-3 -8 -6 -5 -6 6 -1 11 2 17 5 13 3 -3 4 -12 1 -19z m63 12 c0 -5
-5 -10 -11 -10 -5 0 -7 5 -4 10 3 6 8 10 11 10 2 0 4 -4 4 -10z m160 -10 c-24
-15 -37 -11 -16 5 11 8 22 12 25 9 3 -3 -1 -9 -9 -14z m846 11 c-8 -12 16 -29
36 -26 10 2 20 -1 24 -6 3 -5 -6 -9 -20 -9 -13 0 -31 -3 -40 -6 -10 -4 -18 0
-22 10 -8 20 2 46 16 46 6 0 9 -4 6 -9z m-146 -21 c0 -5 -5 -10 -11 -10 -5 0
-7 5 -4 10 3 6 8 10 11 10 2 0 4 -4 4 -10z m-22 -61 c-3 -20 -5 -19 -9 9 -3
20 -2 29 4 23 5 -5 7 -19 5 -32z m36 4 c4 -9 3 -19 -2 -22 -5 -3 -11 -13 -14
-21 -3 -8 -5 2 -5 23 1 39 10 48 21 20z m33 -50 c-3 -10 -5 -2 -5 17 0 19 2
27 5 18 2 -10 2 -26 0 -35z m123 22 c-6 -8 -19 -11 -27 -8 -14 5 -14 8 2 19
22 16 40 8 25 -11z m185 8 c-11 -3 -26 -12 -32 -21 -14 -17 -16 -13 -7 12 4
10 17 16 33 15 20 -1 22 -2 6 -6z m-329 -50 c-3 -3 2 -13 11 -21 10 -11 12
-17 4 -20 -6 -2 -11 -11 -11 -19 0 -37 -12 -1 -16 49 -3 41 -2 49 7 35 6 -10
8 -21 5 -24z m-751 -24 c0 -8 -13 -15 -30 -17 -29 -3 -29 -3 -10 12 18 13 18
15 3 16 -12 0 -15 5 -11 15 5 14 8 14 27 2 11 -8 21 -21 21 -28z m-167 14 c2
-8 -6 -13 -22 -13 -25 0 -33 10 -19 24 10 10 36 3 41 -11z m222 -7 c0 -2 -7
-6 -15 -10 -8 -3 -15 -1 -15 4 0 6 7 10 15 10 8 0 15 -2 15 -4z m55 -16 c-3
-5 -12 -7 -20 -3 -21 7 -19 13 6 13 11 0 18 -4 14 -10z m-507 -17 c-4 -23 -58
-31 -58 -9 0 13 16 22 48 25 8 0 12 -7 10 -16z m172 -14 c0 -13 -11 -25 -35
-35 -19 -8 -35 -21 -35 -29 0 -16 -34 -38 -44 -28 -4 4 3 15 15 24 22 16 21
16 -27 13 -27 -3 -60 -12 -74 -22 -14 -10 -52 -30 -85 -46 -33 -15 -68 -32
-78 -37 -10 -5 -22 -7 -27 -4 -5 3 -12 0 -16 -6 -4 -8 -3 -9 4 -5 7 4 12 5 12
2 0 -2 -14 -12 -32 -20 -30 -15 -31 -15 -15 2 23 25 21 35 -3 29 -24 -6 -26 5
-5 23 9 7 32 10 57 8 34 -3 59 3 118 31 56 27 69 37 53 39 -35 5 -29 32 7 32
17 0 30 -4 30 -10 0 -5 7 -10 15 -10 8 0 12 6 9 15 -4 9 3 16 22 21 18 5 29 3
32 -4 6 -20 29 -13 46 13 20 31 56 34 56 4z m67 5 c-2 -3 -14 -6 -26 -9 -25
-5 -29 12 -3 18 18 4 36 -2 29 -9z m193 12 c0 -11 -19 -15 -25 -6 -3 5 1 10 9
10 9 0 16 -2 16 -4z m-51 -47 c-5 -10 -13 -19 -17 -20 -4 0 -17 -2 -29 -5 -23
-4 -32 10 -13 21 5 3 7 12 4 20 -4 8 3 15 18 17 33 6 50 -9 37 -33z m-1179 6
c0 -8 -7 -15 -15 -15 -13 0 -14 3 -3 15 16 18 18 18 18 0z m1955 -5 c-3 -5 1
-10 10 -10 9 0 13 -5 10 -10 -5 -8 -11 -7 -21 1 -12 10 -11 29 2 29 3 0 2 -4
-1 -10z m-580 -20 c3 -5 -3 -10 -14 -10 -12 0 -21 5 -21 10 0 6 6 10 14 10 8
0 18 -4 21 -10z m-266 -14 c13 -16 9 -20 -31 -30 -23 -5 -28 -3 -28 12 0 10 3
22 7 25 11 12 40 8 52 -7z m161 -11 c15 -9 19 -14 10 -15 -8 0 -25 -3 -36 -6
-16 -4 -23 0 -27 15 -6 25 15 28 53 6z m153 -21 c-3 -8 0 -14 6 -14 6 0 11
-11 11 -25 0 -27 -14 -33 -27 -12 -17 29 -55 27 -91 -4 -27 -24 -40 -29 -63
-24 -19 4 -36 2 -47 -7 -10 -8 -8 -1 7 20 12 17 26 32 31 32 5 0 16 3 25 7 14
5 16 2 10 -16 -7 -22 -6 -22 22 -7 16 8 36 22 43 31 12 15 11 16 -15 9 -21 -5
-27 -4 -23 7 5 16 68 25 68 10 0 -6 6 -11 14 -11 10 0 12 7 8 23 -5 19 -3 20
11 9 9 -8 13 -20 10 -28z m-1003 6 c0 -5 -5 -10 -11 -10 -5 0 -7 5 -4 10 3 6
8 10 11 10 2 0 4 -4 4 -10z m213 -4 c3 -12 -52 -30 -61 -21 -9 9 29 36 46 33
7 -2 14 -7 15 -12z m-306 -28 c-3 -8 -6 -5 -6 6 -1 11 2 17 5 13 3 -3 4 -12 1
-19z m673 12 c13 -9 11 -13 -10 -30 -34 -26 -39 -25 -38 10 1 32 19 39 48 20z
m130 -33 c0 -2 -6 -4 -12 -5 -7 0 -23 -3 -34 -7 -16 -5 -23 -2 -27 15 -8 31
30 43 55 18 10 -10 18 -19 18 -21z m-833 27 c-3 -3 -12 -4 -19 -1 -8 3 -5 6 6
6 11 1 17 -2 13 -5z m413 -41 c0 -5 -12 -16 -25 -26 -19 -13 -25 -15 -25 -4 0
7 5 18 12 25 13 13 38 16 38 5z m690 0 c-1 -10 -66 -43 -85 -43 -8 0 -15 -5
-15 -12 0 -6 -3 -9 -6 -6 -14 15 18 48 46 48 16 0 32 5 35 10 7 12 25 13 25 3z
m84 -22 c-2 -2 1 -10 7 -18 9 -10 7 -13 -9 -13 -20 0 -32 24 -25 47 4 10 7 10
18 0 7 -7 11 -14 9 -16z m-580 11 c3 -5 -8 -22 -24 -37 -28 -27 -30 -27 -30
-8 0 34 11 53 30 53 11 0 21 -4 24 -8z m1813 -59 c-3 -10 -5 -4 -5 12 0 17 2
24 5 18 2 -7 2 -21 0 -30z m-1512 17 c3 -5 12 -7 19 -4 8 3 17 1 20 -4 3 -6
-7 -15 -24 -20 -20 -7 -32 -8 -36 -1 -3 6 -18 8 -33 4 l-26 -7 24 21 c26 23
46 27 56 11z m-772 -25 c-11 -8 -23 -24 -26 -36 -5 -20 -5 -20 14 -3 10 9 19
13 19 9 0 -5 11 2 25 15 14 13 25 19 25 14 0 -13 -128 -106 -138 -100 -4 2
-16 -2 -27 -10 -10 -8 -16 -14 -12 -14 4 0 -15 -20 -43 -45 -28 -25 -55 -45
-61 -45 -18 0 10 39 40 54 25 14 81 84 81 104 0 11 51 58 70 65 8 3 24 6 35 6
19 1 19 0 -2 -14z m1089 -7 c-7 -7 -12 -8 -12 -2 0 6 3 14 7 17 3 4 9 5 12 2
2 -3 -1 -11 -7 -17z m-892 -18 c0 -11 -10 -30 -22 -42 l-23 -23 -3 30 c-3 19
2 33 14 42 25 18 34 16 34 -7z m216 -47 c4 -21 1 -33 -13 -43 -15 -12 -16 -12
-5 0 6 8 12 23 12 33 0 16 -3 17 -15 7 -17 -14 -21 -70 -5 -70 6 0 9 -3 9 -7
-3 -20 2 -34 11 -28 18 11 10 -21 -10 -43 -30 -32 -35 -28 -32 28 3 33 0 50
-8 50 -6 0 -8 5 -5 10 3 6 6 29 7 53 0 23 5 50 10 60 9 18 10 18 24 -1 8 -12
17 -34 20 -49z m223 54 c8 -11 6 -18 -9 -32 -24 -21 -12 -51 26 -65 14 -6 23
-14 20 -19 -3 -4 6 -6 19 -3 33 6 33 -15 0 -30 -34 -16 -72 11 -81 57 -3 19
-10 35 -15 35 -13 0 -11 27 3 50 15 24 22 25 37 7z m301 -24 c11 3 22 2 25 -3
8 -12 -43 -18 -56 -6 -9 8 -10 4 -5 -19 7 -28 24 -49 50 -58 8 -3 8 -8 0 -16
-7 -8 -16 -5 -31 11 -25 28 -47 88 -32 88 6 0 7 5 4 10 -3 6 -3 15 1 22 5 7
10 4 16 -11 6 -17 14 -22 28 -18z m144 -45 c1 -7 5 -19 10 -26 5 -8 4 -18 -3
-25 -8 -8 -11 -5 -11 10 0 12 -4 24 -10 28 -5 3 -7 12 -3 21 6 16 13 13 17 -8z
m-1044 4 c0 -12 -51 -72 -61 -72 -11 0 -12 41 -1 56 12 19 62 32 62 16z m436
-6 c17 -17 11 -37 -16 -54 -24 -14 -29 -6 -23 36 6 35 16 40 39 18z m299 -26
c3 -5 1 -10 -4 -10 -6 0 -11 5 -11 10 0 6 2 10 4 10 3 0 8 -4 11 -10z m-203
-12 c-5 -7 -12 -22 -15 -33 -4 -16 -5 -14 -6 7 -1 22 7 33 28 37 2 1 -1 -5 -7
-11z m-255 -50 c-2 -13 -4 -5 -4 17 -1 22 1 32 4 23 2 -10 2 -28 0 -40z m216
37 c1 -6 -11 -11 -28 -13 -29 -2 -29 -2 -10 13 20 16 35 16 38 0z m-649 -57
c-16 -18 -32 -37 -36 -42 -5 -6 -8 -6 -8 1 0 12 57 73 68 73 3 0 -7 -15 -24
-32z m1130 0 c-3 -4 -11 -8 -17 -7 -9 0 -9 2 0 5 7 3 9 13 6 22 -4 14 -3 14 5
2 6 -8 8 -18 6 -22z m-154 1 c0 -5 6 -6 14 -3 16 6 29 -33 14 -43 -7 -3 -8 -1
-4 6 5 8 0 10 -18 7 -14 -3 -29 -7 -33 -9 -5 -3 -8 10 -9 28 0 26 3 31 18 27
10 -2 18 -8 18 -13z m-553 -31 c-3 -8 -6 -5 -6 6 -1 11 2 17 5 13 3 -3 4 -12
1 -19z m-503 -15 c-7 -2 -10 -13 -7 -24 4 -14 1 -18 -9 -14 -9 4 -19 -4 -26
-20 -21 -46 -52 -23 -32 24 7 18 23 32 43 38 30 9 56 5 31 -4z m1273 -8 c0 -8
-4 -12 -9 -9 -4 3 -8 0 -8 -5 0 -6 -5 -11 -10 -11 -7 0 -7 6 0 20 13 23 27 26
27 5z m-3124 -35 c3 -11 12 -20 21 -20 10 0 13 6 9 16 -4 12 -2 15 8 12 8 -3
13 -12 11 -22 -2 -9 4 -16 13 -16 9 0 14 -4 10 -9 -3 -5 -1 -13 5 -16 8 -5 8
-11 0 -20 -8 -9 -8 -15 0 -20 5 -3 10 1 10 9 0 26 25 18 28 -9 1 -14 -3 -25
-8 -25 -17 0 -11 -18 8 -23 9 -3 -1 -3 -23 -1 -22 3 -48 6 -57 7 -10 1 -18 4
-18 7 0 4 -9 16 -20 28 -12 12 -16 22 -11 22 5 0 8 10 5 23 -13 63 -14 77 -5
77 5 0 11 -9 14 -20z m2816 13 c0 -5 -19 -24 -42 -43 -46 -38 -46 -36 -2 14
29 33 46 44 44 29z m376 -55 c-1 -12 -7 -24 -13 -26 -15 -5 -15 3 -2 29 14 25
17 24 15 -3z m-392 -12 c-10 -13 -21 -22 -25 -19 -5 2 -8 0 -8 -4 0 -15 -192
-152 -214 -153 -5 0 17 17 50 38 32 21 92 66 133 100 40 34 75 62 78 62 2 0
-4 -11 -14 -24z m-206 -17 c-9 -6 -17 -16 -17 -23 0 -7 -15 -28 -34 -47 -19
-18 -32 -37 -30 -41 3 -5 1 -7 -4 -6 -5 2 -21 -11 -36 -29 -31 -36 -133 -90
-186 -98 -22 -4 -11 3 30 17 73 26 150 79 175 121 9 16 29 41 43 56 15 16 35
38 45 51 10 12 21 19 25 15 4 -3 -1 -11 -11 -16z m443 17 c0 -2 -8 -10 -17
-17 -16 -13 -17 -12 -4 4 13 16 21 21 21 13z m-73 -33 c-8 -16 -24 -49 -36
-75 -11 -27 -24 -49 -28 -49 -5 -1 -21 -2 -37 -3 l-28 -2 22 18 c12 10 19 18
15 18 -4 0 3 9 17 19 13 11 37 38 52 60 33 47 44 53 23 14z m-261 -2 c-10 -11
-24 -17 -32 -14 -8 3 -14 1 -14 -4 0 -14 -71 -83 -103 -99 -15 -8 -25 -19 -22
-24 3 -6 -1 -7 -9 -4 -9 3 -16 1 -16 -5 0 -6 -10 -11 -22 -11 -15 0 -5 11 38
39 32 21 76 58 97 81 22 23 45 39 52 36 7 -2 19 2 25 10 7 8 15 14 18 14 3 0
-3 -9 -12 -19z m414 -15 c0 -2 -8 -10 -17 -17 -16 -13 -17 -12 -4 4 13 16 21
21 21 13z m-3040 -72 c0 -8 -4 -14 -10 -14 -5 0 -10 2 -10 4 0 2 -3 12 -6 20
-5 12 -2 15 10 10 9 -3 16 -12 16 -20z m2750 -58 c0 -2 -8 -10 -17 -17 -16
-13 -17 -12 -4 4 13 16 21 21 21 13z m-392 -102 c0 -32 -3 -42 -9 -31 -8 13
-2 77 7 77 2 0 3 -21 2 -46z m212 32 c0 -2 -7 -7 -16 -10 -8 -3 -12 -2 -9 4 6
10 25 14 25 6z m-295 -41 c-16 -14 -33 -25 -37 -25 -3 0 -51 -27 -106 -59
-190 -113 -299 -158 -325 -132 -8 8 -1 11 30 11 28 0 72 16 153 55 62 31 110
58 107 62 -3 3 -31 -9 -63 -26 -31 -18 -58 -30 -60 -28 -2 2 20 16 48 32 29
16 87 50 129 77 42 26 80 48 85 48 5 0 -6 -10 -24 -21 -53 -34 -28 -34 30 -1
64 37 72 39 33 7z m-140 -3 c-13 -11 -124 -58 -155 -66 -22 -5 -22 -5 -5 4 27
13 159 69 165 70 2 0 0 -4 -5 -8z m295 -12 c-8 -5 -22 -10 -30 -10 -13 0 -13
1 0 10 8 5 22 10 30 10 13 0 13 -1 0 -10z m-440 -14 c0 -2 -7 -7 -16 -10 -8
-3 -12 -2 -9 4 6 10 25 14 25 6z m-290 -146 c-8 -5 -19 -10 -25 -10 -5 0 -3 5
5 10 8 5 20 10 25 10 6 0 3 -5 -5 -10z m670 -17 c-8 -3 -24 -10 -35 -15 -20
-9 -20 -9 -1 6 11 9 27 16 35 15 14 0 14 -1 1 -6z m-645 -97 c-19 -13 -450
-216 -459 -216 -3 0 -53 -23 -113 -51 -199 -94 -465 -210 -470 -206 -2 2 36
22 84 44 278 130 516 239 573 263 36 16 137 62 225 104 154 73 202 91 160 62z
m452 0 c-4 -11 -1 -13 11 -9 11 4 14 3 7 -4 -5 -6 -23 -14 -40 -18 l-30 -7 24
26 c28 29 36 33 28 12z m144 -19 c-10 -9 -11 -8 -5 6 3 10 9 15 12 12 3 -3 0
-11 -7 -18z m-322 -54 c-12 -15 -12 -16 4 -10 28 11 10 -11 -25 -29 -41 -21
-44 -13 -7 24 33 34 51 43 28 15z m296 -3 c-3 -5 0 -10 7 -10 7 -1 2 -7 -12
-15 -32 -17 -38 -11 -15 15 19 21 30 27 20 10z m-1283 -18 c7 -7 1 -15 -20
-26 -41 -21 -42 -21 -42 13 0 25 3 29 26 26 14 -1 30 -7 36 -13z m-4 -51 c-10
-16 -38 -19 -38 -5 0 4 34 20 48 23 1 1 -3 -8 -10 -18z m1352 16 c0 -2 -12
-14 -27 -28 l-28 -24 24 28 c23 25 31 32 31 24z m-570 -26 c-10 -20 -30 -37
-30 -26 0 11 25 45 33 45 4 0 3 -9 -3 -19z m375 -2 c-4 -5 -21 -16 -38 -25
l-32 -17 20 24 c11 13 24 27 30 31 12 9 27 -1 20 -13z m-240 -9 c-3 -5 2 -10
12 -10 12 -1 4 -9 -22 -25 -21 -13 -41 -22 -43 -20 -6 6 38 65 49 65 6 0 7 -4
4 -10z m-245 -35 c-14 -17 -30 -20 -30 -4 0 5 4 8 9 4 5 -3 12 -1 16 5 3 5 9
10 12 10 3 0 0 -7 -7 -15z m630 -8 c0 -2 -10 -12 -22 -23 l-23 -19 19 23 c18
21 26 27 26 19z m-555 -20 c11 -12 9 -17 -15 -30 -39 -23 -43 -21 -25 13 18
34 21 35 40 17z m295 -22 c-13 -14 -28 -25 -33 -25 -6 0 0 11 13 25 13 14 28
25 33 25 6 0 0 -11 -13 -25z m-1250 -26 c14 -11 19 -18 13 -14 -7 3 -13 2 -13
-4 0 -6 -13 -17 -29 -26 -35 -18 -45 -8 -36 35 8 36 29 38 65 9z m1015 0 c-5
-16 -4 -20 6 -15 8 4 5 0 -5 -8 -35 -28 -50 -19 -24 13 28 36 31 37 23 10z
m-505 1 c-8 -5 -19 -10 -25 -10 -5 0 -3 5 5 10 8 5 20 10 25 10 6 0 3 -5 -5
-10z m325 -9 c5 -9 -31 -41 -47 -41 -5 0 -1 11 8 25 17 26 29 31 39 16z m-375
-11 c-8 -5 -19 -10 -25 -10 -5 0 -3 5 5 10 8 5 20 10 25 10 6 0 3 -5 -5 -10z
m423 -17 c-5 -12 -3 -14 7 -8 8 5 11 3 8 -6 -2 -7 -19 -19 -37 -26 -32 -13
-32 -13 -20 9 16 32 30 48 40 48 5 0 5 -7 2 -17z m-493 -13 c-8 -5 -19 -10
-25 -10 -5 0 -3 5 5 10 8 5 20 10 25 10 6 0 3 -5 -5 -10z m950 6 c0 -2 -8 -10
-17 -17 -16 -13 -17 -12 -4 4 13 16 21 21 21 13z m-1352 -21 c-10 -10 -49 -14
-43 -4 4 5 16 9 27 9 12 0 19 -2 16 -5z m361 0 c-9 -9 -152 -65 -156 -61 -2 2
29 17 69 34 70 29 97 38 87 27z m625 -26 c-19 -22 -19 -22 3 -10 30 16 42 13
19 -4 -11 -8 -28 -15 -38 -15 -16 0 -17 3 -7 23 13 24 31 39 38 32 2 -3 -4
-15 -15 -26z m204 2 c-7 -11 -19 -23 -26 -26 -7 -3 -3 8 10 24 26 32 36 34 16
2z m-421 -51 c-4 -24 -27 -51 -27 -31 0 14 18 51 25 51 3 0 3 -9 2 -20z m583
-5 c-7 -8 -16 -15 -21 -15 -5 0 -1 9 8 20 9 11 19 17 21 15 3 -3 -1 -11 -8
-20z m-550 -20 c-7 -8 -17 -15 -22 -15 -6 0 -5 7 2 15 7 8 17 15 22 15 6 0 5
-7 -2 -15z m59 -31 c-13 -16 -12 -16 10 -5 19 11 23 11 19 0 -4 -12 -58 -32
-66 -25 -2 2 7 16 19 30 24 28 41 28 18 0z m996 16 c3 -6 -1 -7 -9 -4 -18 7
-21 14 -7 14 6 0 13 -4 16 -10z m-2119 -15 c-3 -8 0 -15 7 -15 7 0 -17 -14
-52 -31 -63 -30 -85 -33 -56 -9 8 7 15 17 15 22 0 21 38 46 74 47 12 1 16 -4
12 -14z m2314 -1 c0 -2 -7 -4 -15 -4 -8 0 -15 4 -15 10 0 5 7 7 15 4 8 -4 15
-8 15 -10z m-1349 -21 c-12 -20 -14 -14 -5 12 4 9 9 14 11 11 3 -2 0 -13 -6
-23z m88 23 c-12 -10 -59 -15 -59 -6 0 5 14 10 32 10 17 0 29 -2 27 -4z m1176
-5 c3 -5 1 -12 -4 -15 -5 -3 -11 1 -15 9 -6 16 9 21 19 6z m-1814 -38 c-9 -17
-93 -113 -185 -213 -23 -25 -115 -125 -204 -223 -90 -97 -167 -175 -172 -172
-5 3 -41 -34 -81 -83 -63 -75 -122 -122 -153 -122 -4 0 -15 -7 -23 -16 -12
-11 -18 -12 -23 -4 -6 9 -14 8 -34 -5 -40 -27 -24 7 20 40 19 14 34 31 34 38
0 7 -7 3 -15 -7 -8 -11 -15 -17 -15 -13 0 12 198 292 232 328 44 47 157 201
220 302 16 26 32 47 34 47 6 0 -13 -35 -44 -82 -14 -22 -21 -42 -16 -50 4 -7
3 -10 -1 -5 -5 4 -15 -7 -23 -25 -8 -18 -16 -27 -19 -21 -4 12 -28 -18 -135
-172 -34 -49 -136 -186 -181 -242 -5 -7 -7 -13 -4 -13 3 0 27 28 54 63 103
135 222 269 160 180 -20 -29 -35 -53 -33 -53 2 0 53 62 114 138 60 75 139 169
176 207 59 61 55 55 -30 -48 -53 -65 -94 -120 -92 -123 3 -2 27 21 53 53 27
32 52 62 57 67 4 5 10 7 14 4 3 -4 -34 -52 -82 -107 -47 -56 -89 -99 -92 -96
-3 3 7 19 23 35 16 16 26 32 23 35 -4 5 -88 -93 -183 -215 -43 -56 16 4 71 71
31 38 59 67 61 65 7 -7 -138 -177 -147 -171 -4 2 -18 -8 -31 -23 -22 -25 -22
-25 -1 -8 12 11 22 15 22 9 0 -13 -35 -45 -42 -38 -2 3 -15 -7 -29 -23 l-24
-27 26 23 c14 12 28 20 31 16 6 -5 49 44 334 375 49 59 128 144 173 191 l83
85 -64 -75 c-35 -41 -97 -113 -138 -160 -41 -48 -144 -166 -229 -263 -84 -97
-157 -175 -161 -172 -4 3 -14 -3 -21 -12 -10 -12 -10 -14 -1 -9 27 16 9 -11
-25 -36 -20 -16 -31 -28 -25 -28 10 0 97 86 211 210 23 25 38 36 34 26 -4 -14
-3 -17 6 -12 7 5 10 15 7 23 -4 9 30 56 92 126 135 154 302 335 348 377 l39
35 -30 -35 c-17 -19 -74 -82 -127 -140 -114 -126 -274 -305 -301 -340 -37 -46
76 74 213 225 74 82 167 184 205 226 75 83 81 89 66 62z m754 -4 c-4 -13 -3
-19 3 -16 14 10 60 -16 66 -36 2 -11 -3 -23 -15 -30 -10 -6 -19 -18 -19 -26 0
-12 3 -12 12 -3 17 17 33 15 18 -3 -8 -10 -9 -15 -2 -15 14 0 33 35 24 44 -3
4 2 4 13 0 17 -7 18 -5 8 7 -17 21 -13 58 6 51 9 -3 12 -1 7 6 -4 7 1 10 14 9
12 -1 19 -6 16 -14 -3 -7 0 -13 7 -14 9 0 9 -2 0 -5 -7 -3 -9 -12 -6 -20 3 -8
0 -14 -7 -14 -6 0 -8 -5 -5 -10 3 -6 -2 -13 -12 -17 -10 -4 -24 -13 -32 -21
-8 -7 -22 -11 -32 -9 -10 3 -20 -1 -23 -9 -3 -8 -12 -14 -21 -14 -20 0 -19
-16 1 -24 9 -4 14 -13 10 -22 -3 -8 2 -27 12 -42 l17 -26 -31 18 c-20 12 -42
40 -59 76 l-27 58 21 21 21 21 -2 -28 c-1 -15 1 -33 5 -39 8 -13 37 -6 37 9 0
5 -5 6 -11 3 -6 -5 -9 9 -8 40 2 28 9 49 17 54 29 16 -7 22 -37 6 -17 -8 -32
-15 -35 -15 -8 0 6 32 23 52 21 24 34 23 26 -3z m-74 -40 c-5 -13 -10 -19 -10
-12 -1 15 10 45 15 40 3 -2 0 -15 -5 -28z m280 8 c-10 -9 -11 -8 -5 6 3 10 9
15 12 12 3 -3 0 -11 -7 -18z m-1271 -12 c0 -8 -2 -15 -4 -15 -2 0 -6 7 -10 15
-3 8 -1 15 4 15 6 0 10 -7 10 -15z m-190 -15 c-8 -5 -22 -9 -30 -9 -10 0 -8 3
5 9 27 12 43 12 25 0z m-135 -19 c7 -13 -53 -74 -65 -66 -12 7 -5 21 24 51 24
25 32 28 41 15z m310 -18 c-3 -16 -10 -32 -15 -37 -5 -5 -4 7 2 27 13 43 23
50 13 10z m2122 -10 c-3 -10 -5 -4 -5 12 0 17 2 24 5 18 2 -7 2 -21 0 -30z
m-1987 24 c0 -2 -10 -12 -22 -23 l-23 -19 19 23 c18 21 26 27 26 19z m1455
-27 c-3 -5 -11 -10 -16 -10 -6 0 -7 5 -4 10 3 6 11 10 16 10 6 0 7 -4 4 -10z
m-1531 -65 c-20 -25 -39 -43 -42 -40 -5 5 67 85 76 85 2 0 -13 -20 -34 -45z
m1336 -20 c-30 -17 -40 -18 -40 -6 0 10 22 18 50 19 8 1 4 -5 -10 -13z m-210
-25 c0 -5 -4 -10 -10 -10 -5 0 -10 5 -10 10 0 6 5 10 10 10 6 0 10 -4 10 -10z
m50 -35 c7 -8 8 -15 2 -15 -5 0 -15 7 -22 15 -7 8 -8 15 -2 15 5 0 15 -7 22
-15z m-320 -20 c-7 -8 -20 -15 -29 -15 -11 1 -8 5 9 15 32 18 35 18 20 0z
m310 -45 l21 -29 -23 4 c-12 3 -29 12 -37 22 -15 16 -15 16 2 4 15 -12 17 -12
11 3 -3 9 -17 19 -30 22 -13 3 -24 10 -24 15 0 17 61 -14 80 -41z m-1615 -48
c-7 -8 -35 7 -35 18 0 6 7 6 20 -2 10 -7 17 -14 15 -16z m1705 -34 c0 -7 -10
-2 -23 10 -28 26 -45 29 -26 5 13 -16 12 -17 -3 -5 -9 8 -14 20 -11 28 4 11
10 10 34 -7 16 -11 29 -25 29 -31z m25 -18 c3 -5 1 -10 -4 -10 -6 0 -11 5 -11
10 0 6 2 10 4 10 3 0 8 -4 11 -10z m1175 -30 c0 -5 -2 -10 -4 -10 -3 0 -8 5
-11 10 -3 6 -1 10 4 10 6 0 11 -4 11 -10z m-3000 -70 c-6 -12 -14 -20 -17 -17
-2 3 1 14 8 26 7 11 15 18 17 16 2 -2 -2 -13 -8 -25z m270 -127 c-41 -43 -83
-87 -93 -98 -20 -20 -20 -20 -6 1 25 37 153 174 163 174 5 0 -24 -35 -64 -77z
m3983 40 c-7 -2 -19 -2 -25 0 -7 3 -2 5 12 5 14 0 19 -2 13 -5z m-956 -39 c-3
-3 -12 -4 -19 -1 -8 3 -5 6 6 6 11 1 17 -2 13 -5z m-593 -32 c-23 -22 -74 -37
-74 -22 0 5 6 10 14 10 8 0 16 6 19 13 2 7 17 13 33 15 28 2 28 2 8 -16z m226
8 c0 -5 -7 -10 -15 -10 -8 0 -15 5 -15 10 0 6 7 10 15 10 8 0 15 -4 15 -10z
m637 4 c-3 -3 -12 -4 -19 -1 -8 3 -5 6 6 6 11 1 17 -2 13 -5z m153 -3 c0 -5
-8 -11 -17 -14 -10 -2 -26 -8 -35 -12 -10 -4 -18 -3 -18 2 0 6 15 15 33 21 17
5 33 10 35 11 1 1 2 -3 2 -8z m-1910 -45 c0 -12 -5 -7 -19 24 -11 24 -11 24 3
6 9 -11 16 -24 16 -30z m1065 34 c-3 -5 -11 -10 -16 -10 -6 0 -7 5 -4 10 3 6
11 10 16 10 6 0 7 -4 4 -10z m145 0 c0 -5 -5 -10 -11 -10 -5 0 -7 5 -4 10 3 6
8 10 11 10 2 0 4 -4 4 -10z m980 6 c0 -3 -4 -8 -10 -11 -5 -3 -10 -1 -10 4 0
6 5 11 10 11 6 0 10 -2 10 -4z m-1020 -9 c0 -14 -41 -47 -51 -41 -8 4 -9 3 -5
-4 5 -8 -5 -10 -34 -8 -40 3 -69 16 -37 16 10 0 17 5 17 10 0 6 5 10 11 10 5
0 7 -4 4 -10 -8 -13 8 -13 21 0 5 5 19 11 31 13 13 2 26 6 29 10 8 8 14 9 14
4z m180 -7 c11 -8 8 -9 -12 -6 -16 3 -28 0 -28 -5 0 -5 -7 -9 -15 -9 -8 0 -15
-7 -15 -15 0 -11 -7 -14 -25 -9 -15 4 -25 2 -25 -5 0 -6 6 -8 14 -5 8 3 17 0
22 -7 4 -7 3 -10 -4 -5 -6 3 -28 -4 -49 -16 l-38 -22 20 24 20 23 -32 -6 c-19
-4 -33 -2 -33 3 0 6 7 10 16 10 11 0 14 5 10 16 -5 13 0 15 32 9 30 -5 43 -2
61 14 26 23 57 27 81 11z m752 -22 c-8 -8 -9 -4 -5 13 4 13 8 18 11 10 2 -7
-1 -18 -6 -23z m-708 -3 c-15 -14 -30 -23 -33 -19 -7 7 36 44 51 44 5 0 -3
-11 -18 -25z m350 13 c-3 -4 -12 -8 -20 -8 -8 0 -13 4 -10 8 3 5 12 9 20 9 8
0 13 -4 10 -9z m555 -9 c-25 -19 -59 -31 -59 -21 0 14 37 39 59 39 l24 1 -24
-19z m-1343 -5 c-4 -12 -2 -15 9 -10 8 3 15 1 15 -3 0 -5 10 -7 23 -4 18 4 19
3 7 -6 -19 -14 -80 -14 -80 -1 0 10 21 39 29 40 2 0 0 -7 -3 -16z m389 6 c3
-5 -1 -10 -10 -10 -9 0 -13 5 -10 10 3 6 8 10 10 10 2 0 7 -4 10 -10z m440 -9
c-3 -6 -14 -11 -23 -11 -13 0 -13 2 4 14 21 15 30 14 19 -3z m225 8 c0 -9 -23
-16 -75 -23 -22 -3 -31 -3 -20 1 11 3 27 11 37 17 18 13 58 16 58 5z m218 -9
c-14 -22 -24 -25 -33 -10 -3 6 1 10 9 10 9 0 16 5 16 10 0 6 5 10 10 10 6 0 5
-8 -2 -20z m-1384 -22 c-4 -5 -19 -8 -35 -6 -29 5 -40 -6 -16 -15 8 -3 6 -7
-7 -12 -11 -5 -27 -3 -39 4 -16 10 -24 10 -43 0 -26 -13 -32 -35 -11 -42 6 -2
1 -4 -13 -3 -25 1 -25 2 -13 28 8 14 27 31 43 37 17 5 30 8 30 6 0 -2 11 2 25
9 27 14 88 9 79 -6z m56 2 c-27 -21 -40 -25 -40 -12 0 15 24 32 45 32 19 0 18
-2 -5 -20z m727 5 c0 -9 -10 -15 -26 -15 -24 0 -24 1 -5 15 24 18 31 19 31 0z
m-297 -5 c0 -5 -2 -10 -4 -10 -2 0 -12 -3 -20 -6 -12 -5 -15 -2 -10 10 7 17
34 22 34 6z m403 3 c-7 -2 -21 -2 -30 0 -10 3 -4 5 12 5 17 0 24 -2 18 -5z
m447 -12 c0 -13 -28 -21 -47 -13 -14 5 -12 8 12 13 17 4 31 7 33 8 1 0 2 -3 2
-8z m-1125 -11 c-3 -5 -16 -10 -28 -10 -18 0 -19 2 -7 10 20 13 43 13 35 0z
m510 0 c14 -5 6 -7 -27 -6 -25 0 -41 4 -35 8 15 10 36 9 62 -2z m531 -18 c-17
-16 -18 -16 -5 5 7 12 15 20 18 17 3 -2 -3 -12 -13 -22z m-716 10 c0 -5 -14
-9 -32 -10 -23 -1 -28 2 -18 8 19 12 50 13 50 2z m690 -2 c0 -5 -5 -10 -11
-10 -5 0 -7 5 -4 10 3 6 8 10 11 10 2 0 4 -4 4 -10z m227 -6 c-3 -3 -12 -4
-19 -1 -8 3 -5 6 6 6 11 1 17 -2 13 -5z m-1304 -63 c-5 -20 -33 -38 -33 -22 0
5 -21 3 -47 -5 -25 -8 -49 -12 -51 -9 -3 3 -11 0 -19 -6 -9 -9 -13 -8 -13 0 0
6 8 14 18 17 9 3 25 10 34 15 10 5 35 12 55 15 21 3 40 8 42 10 11 10 19 2 14
-15z m53 8 c8 -14 -14 -29 -32 -22 -16 6 -7 33 11 33 8 0 17 -5 21 -11z m59
-9 c-3 -5 -14 -10 -23 -10 -15 0 -15 2 -2 10 20 13 33 13 25 0z m-715 -14 c0
-6 -4 -15 -8 -21 -10 -14 -32 -17 -32 -5 0 6 5 10 10 10 6 0 10 5 10 11 0 7
-7 8 -17 4 -10 -4 -34 -9 -53 -11 -33 -4 -34 -3 -15 11 22 18 105 18 105 1z
m755 4 c-3 -5 -13 -10 -21 -10 -8 0 -12 5 -9 10 3 6 13 10 21 10 8 0 12 -4 9
-10z m-2999 -33 c-28 -28 -33 -53 -13 -60 21 -7 0 -19 -22 -12 l-21 6 20 39
c11 21 28 43 37 49 27 15 27 6 -1 -22z m2577 -33 c20 -4 20 -6 -3 -15 -14 -6
-26 -9 -27 -7 -1 2 -9 -6 -18 -17 -9 -11 -14 -15 -11 -8 9 16 -29 26 -53 14
-20 -11 -34 -40 -29 -62 2 -7 -6 -17 -17 -23 -36 -19 -71 -56 -53 -56 8 0 27
11 42 25 31 28 42 31 49 12 8 -20 -3 -31 -56 -60 -52 -29 -61 -32 -52 -17 3 6
0 10 -7 10 -7 0 -19 -9 -26 -21 -9 -14 -19 -18 -33 -14 -13 5 -25 -1 -38 -17
-11 -13 -23 -20 -27 -15 -4 4 1 13 11 21 10 7 15 18 11 25 -4 7 3 15 18 21 14
5 26 14 26 20 0 5 6 10 14 10 24 0 29 20 10 35 -22 16 -11 20 15 5 14 -7 25
-4 45 15 14 13 26 32 26 41 0 14 -6 15 -37 9 -21 -4 -46 -7 -55 -8 -10 -1 -18
-9 -18 -19 0 -10 -6 -18 -13 -18 -7 0 -22 -7 -33 -16 -19 -15 -19 -15 2 -11
16 3 20 -1 19 -17 -1 -12 -9 -22 -18 -24 -10 -2 -15 -8 -12 -13 4 -5 -2 -9
-11 -9 -17 0 -17 -1 0 -13 16 -12 16 -14 -5 -32 -16 -14 -23 -16 -26 -7 -3 6
-11 12 -19 12 -10 0 -13 8 -10 25 6 33 14 45 32 45 8 0 14 4 14 8 0 11 -39 12
-45 1 -11 -17 -20 -9 -21 17 -1 15 3 24 10 21 6 -2 19 4 29 14 18 16 18 18 1
27 -30 17 19 34 83 28 67 -5 172 10 193 29 8 7 32 16 53 20 20 4 37 11 37 17
0 5 6 6 13 1 6 -4 15 -8 20 -9z m1017 -21 c-8 -4 -19 -12 -25 -19 -5 -8 -26
-14 -45 -16 -19 -1 -42 -5 -51 -9 -12 -6 -15 -3 -13 14 1 12 3 23 3 24 1 1 11
-1 24 -6 14 -5 33 -3 52 5 17 7 39 13 50 13 14 0 16 -2 5 -6z m-150 -13 c0
-13 -38 -36 -74 -44 -37 -9 -83 1 -90 20 -5 12 0 14 22 10 15 -3 38 1 52 9 28
16 90 20 90 5z m-196 -8 c3 -5 -1 -9 -9 -9 -8 0 -15 4 -15 9 0 4 4 8 9 8 6 0
12 -4 15 -8z m-2446 -40 c2 -13 8 -19 14 -16 6 4 9 1 7 -5 -3 -7 -9 -12 -14
-12 -6 0 -17 -6 -25 -14 -8 -7 -26 -15 -40 -17 -14 -1 -28 -7 -31 -11 -11 -15
-76 -19 -84 -7 -5 8 -2 10 11 6 23 -7 89 26 122 61 l23 25 -33 -7 c-18 -4 -39
-12 -45 -17 -14 -11 -17 0 -5 18 8 14 37 21 72 20 18 -1 26 -8 28 -24z m-108
8 c0 -5 -6 -7 -14 -4 -18 7 -76 -23 -76 -38 0 -7 -12 -22 -27 -34 -16 -12 -24
-26 -20 -31 5 -4 13 0 18 10 6 9 15 17 20 17 6 0 8 -4 5 -9 -4 -5 0 -12 6 -14
7 -3 -2 -8 -20 -12 -18 -4 -31 -10 -28 -12 7 -7 -32 -43 -47 -43 -7 0 -18 -5
-24 -11 -5 -5 -27 -12 -47 -15 -34 -4 -37 -2 -31 16 4 11 2 20 -4 20 -6 0 -11
-4 -11 -10 0 -15 -26 -12 -40 5 -10 13 -9 15 10 15 13 0 24 8 27 20 6 22 18
26 28 10 4 -6 11 -8 16 -4 5 3 7 10 4 15 -4 5 2 9 11 9 10 0 14 -3 11 -6 -4
-4 3 -15 15 -25 24 -21 32 -24 23 -8 -4 5 1 19 11 30 9 10 14 19 9 19 -16 0
54 56 96 77 47 23 79 29 79 13z m1440 -10 c-10 -7 -11 -10 -2 -10 10 0 9 -7
-2 -29 -12 -23 -13 -34 -3 -60 13 -35 5 -49 -33 -53 -24 -3 -25 0 -26 47 -2
59 3 70 22 54 13 -11 15 -9 13 7 0 4 5 10 11 14 21 13 0 32 -27 25 -16 -4 -22
-2 -18 5 3 5 23 10 43 10 28 0 33 -3 22 -10z m1633 -8 c13 -3 15 -7 7 -12 -21
-13 -2 -27 29 -22 18 2 33 12 36 22 6 19 42 34 50 21 8 -14 -7 -51 -21 -52 -8
-1 -18 -3 -24 -4 -5 -1 -14 -3 -20 -4 -5 0 -9 -7 -7 -13 1 -8 -11 -14 -33 -16
-19 -1 -47 -7 -61 -13 -31 -12 -71 4 -101 40 -10 12 -23 21 -30 21 -8 -1 -5
-6 6 -15 17 -13 17 -15 2 -30 -9 -9 -30 -17 -47 -17 -18 -1 -51 -12 -75 -25
-23 -13 -66 -26 -96 -30 -29 -3 -57 -9 -63 -13 -21 -15 -67 -21 -81 -9 -8 6
-14 26 -14 43 0 24 -3 27 -10 16 -5 -8 -10 -24 -10 -36 0 -30 -80 -68 -110
-53 -9 4 -38 3 -65 -2 -41 -8 -52 -7 -61 6 -9 12 -17 13 -37 6 -29 -11 -37 -6
-37 23 -1 19 -2 19 -13 -4 -12 -24 -27 -29 -92 -30 -11 -1 -22 -6 -26 -12 -9
-14 -31 0 -23 15 5 9 4 9 -5 1 -7 -6 -13 -18 -14 -25 -7 -42 -32 -49 -65 -19
-11 11 -27 17 -35 14 -8 -3 -23 4 -34 15 -18 19 -19 19 -19 1 0 -10 5 -16 11
-12 5 3 4 -2 -4 -11 -7 -9 -17 -14 -22 -11 -5 3 -9 -1 -9 -8 -1 -10 -4 -9 -13
2 -9 11 -31 15 -89 13 -58 -1 -78 2 -78 12 0 19 28 38 63 42 17 2 34 9 39 16
6 9 12 9 26 0 27 -16 107 -21 107 -5 0 6 5 12 10 12 6 -1 10 -9 9 -20 0 -11 6
-22 14 -25 11 -4 13 1 10 19 -3 15 0 27 8 30 8 3 14 -1 14 -10 0 -8 5 -12 10
-9 6 3 10 19 10 34 0 39 23 57 55 43 27 -12 33 -40 13 -60 -7 -7 -8 -12 -4
-12 4 0 17 11 28 25 14 18 28 25 46 23 18 -2 27 2 30 15 2 11 -3 17 -14 17
-21 0 -13 10 13 15 10 2 20 4 23 6 5 2 23 4 58 8 7 0 10 6 6 12 -4 7 3 6 17
-2 l24 -13 -27 -10 c-37 -13 -36 -26 2 -26 23 0 30 5 32 20 0 11 1 26 2 33 2
20 24 29 47 17 11 -7 31 -9 44 -6 15 4 28 0 36 -11 12 -15 12 -16 -3 -10 -23
8 -23 1 1 -29 16 -21 20 -22 31 -9 7 8 16 12 21 9 5 -3 9 1 10 8 0 9 2 10 5 1
6 -14 51 0 68 22 16 20 68 31 64 14 -2 -8 4 -13 12 -11 10 1 9 -2 -4 -13 -19
-14 -18 -15 11 -12 40 5 53 14 47 32 -5 11 2 14 29 13 21 -1 46 7 65 20 32 23
47 28 37 13 -3 -6 34 -9 97 -7 67 3 104 8 106 16 2 6 11 8 21 5 9 -4 24 -10
34 -13z m47 -8 c0 -8 -5 -12 -10 -9 -6 4 -8 11 -5 16 9 14 15 11 15 -7z
m-2323 0 c-3 -3 -12 -4 -19 -1 -8 3 -5 6 6 6 11 1 17 -2 13 -5z m63 3 c0 -2
-8 -19 -17 -38 -9 -18 -16 -48 -15 -66 2 -30 0 -33 -24 -33 -15 0 -32 7 -39
16 -12 17 -13 10 -6 -37 1 -3 15 -4 31 -1 18 3 30 0 30 -7 0 -8 6 -9 18 -2 10
5 24 6 31 2 10 -6 8 -10 -6 -16 -10 -5 -25 -7 -33 -6 -9 1 -26 -12 -38 -29
-23 -31 -46 -37 -72 -20 -13 9 -11 13 10 31 l25 20 -40 -6 c-22 -4 -45 -11
-50 -15 -18 -15 -115 -24 -115 -11 0 6 -9 11 -19 11 -19 0 -35 -28 -36 -59 0
-8 -6 -16 -14 -19 -10 -3 -11 2 -6 18 7 21 5 22 -19 16 -28 -7 -36 8 -10 18
21 8 8 27 -14 20 -15 -5 -15 -5 1 6 9 6 21 9 26 6 5 -3 11 1 15 9 3 8 11 15
17 15 8 0 8 -4 -1 -15 -17 -21 -5 -31 16 -14 10 8 26 12 37 11 15 -3 18 0 14
12 -4 11 -1 16 11 17 14 0 14 2 -3 9 -16 7 -17 9 -3 9 26 1 31 -16 12 -44 -9
-14 -12 -25 -8 -25 15 1 46 28 58 52 8 15 22 23 46 26 19 2 43 4 52 5 12 1 14
5 7 14 -8 8 -18 9 -35 2 -36 -13 -41 -11 -18 7 16 13 16 15 2 10 -13 -4 -17 0
-15 12 5 30 24 55 36 48 6 -4 9 -11 6 -15 -2 -5 8 -6 23 -3 25 4 26 3 8 -10
-18 -14 -18 -15 -1 -22 12 -4 22 -1 27 8 4 8 22 17 39 21 26 6 28 9 15 18 -17
13 -10 30 14 40 18 7 30 8 30 4z m482 -19 c-7 -7 -12 -8 -12 -2 0 14 12 26 19
19 2 -3 -1 -11 -7 -17z m-1967 2 c-3 -5 -14 -10 -23 -10 -15 0 -15 2 -2 10 20
13 33 13 25 0z m1565 0 c0 -5 -4 -10 -9 -10 -11 0 -3 -39 12 -57 5 -7 7 -13 4
-13 -3 0 -13 -3 -22 -7 -14 -5 -16 -2 -10 16 9 29 -23 41 -42 16 -18 -25 -11
-41 15 -37 12 2 22 -2 22 -7 0 -6 -6 -11 -14 -11 -8 0 -22 -3 -32 -7 -11 -4
-15 -3 -10 5 3 6 2 13 -2 16 -14 9 -1 56 15 56 8 0 13 8 12 18 -1 9 -1 20 0
25 2 11 61 8 61 -3z m338 -4 c20 -12 -6 -38 -30 -30 -12 3 -27 -1 -38 -11 -10
-9 -24 -14 -29 -10 -6 3 -15 -4 -20 -16 l-8 -23 -6 26 c-7 27 -32 44 -42 28
-4 -6 1 -10 10 -10 9 0 15 -6 13 -12 -7 -20 -90 -29 -108 -12 -12 12 -12 14 0
15 8 1 18 1 23 0 4 0 7 9 7 21 0 21 0 21 -15 2 -8 -10 -15 -14 -15 -7 0 16 17
26 65 39 46 12 174 13 193 0z m-1305 -6 c-17 -16 -53 -22 -53 -8 0 8 13 13 31
14 16 1 27 -2 22 -6z m384 4 c-3 -3 -12 -4 -19 -1 -8 3 -5 6 6 6 11 1 17 -2
13 -5z m40 -9 c0 -8 -8 -15 -18 -15 -12 0 -16 5 -13 15 4 8 12 15 18 15 7 0
13 -7 13 -15z m389 -6 c0 -13 -4 -15 -12 -8 -7 5 -24 7 -38 3 -15 -4 -26 -2
-26 4 0 11 21 18 55 19 14 0 21 -6 21 -18z m1684 0 c0 -5 -7 -9 -15 -9 -8 0
-15 7 -15 15 0 9 6 12 15 9 8 -4 15 -10 15 -15z m-2755 0 c11 -16 1 -19 -13
-3 -7 8 -8 14 -3 14 5 0 13 -5 16 -11z m63 -6 c-2 -9 -9 -18 -16 -19 -7 -1 -8
0 -2 3 16 8 12 26 -5 19 -8 -3 -15 -1 -15 4 0 6 9 10 21 10 14 0 19 -5 17 -17z
m27 8 c3 -5 1 -12 -5 -16 -5 -3 -10 1 -10 9 0 18 6 21 15 7z m1192 -13 c0 -13
-1 -17 -4 -10 -4 10 -8 10 -19 1 -12 -9 -18 -9 -27 0 -9 9 -9 14 3 21 26 17
46 11 47 -12z m1233 12 c0 -5 -2 -10 -4 -10 -3 0 -8 5 -11 10 -3 6 -1 10 4 10
6 0 11 -4 11 -10z m1030 -9 c7 -15 6 -23 -6 -35 -9 -9 -20 -13 -26 -10 -6 4
-6 10 1 17 6 6 11 19 11 29 0 23 7 23 20 -1z m-1962 -25 c-10 -7 -15 -16 -11
-20 4 -4 0 -4 -10 0 -19 7 -13 24 9 24 8 0 14 5 14 12 0 6 3 8 7 4 5 -4 0 -13
-9 -20z m-1682 -38 c-26 -26 -36 -43 -28 -45 7 -3 19 0 26 7 9 6 17 7 20 2 7
-12 -16 -22 -48 -22 -36 0 -27 35 19 69 56 42 60 38 11 -11z m204 38 c0 -3 -4
-8 -10 -11 -5 -3 -10 -1 -10 4 0 6 5 11 10 11 6 0 10 -2 10 -4z m225 -6 c-3
-5 -12 -10 -18 -10 -7 0 -6 4 3 10 19 12 23 12 15 0z m595 0 c0 -13 -38 -32
-50 -25 -6 3 -10 1 -10 -4 0 -6 -15 -11 -34 -11 -19 0 -38 -4 -41 -10 -11 -17
-25 -11 -25 12 0 12 3 18 7 15 3 -4 12 -2 20 4 26 23 133 38 133 19z m360 -9
c0 -12 -20 -25 -27 -18 -7 7 6 27 18 27 5 0 9 -4 9 -9z m80 -35 c51 -5 50 -5
50 -21 0 -11 -12 -15 -44 -15 -36 0 -46 4 -51 21 -6 18 -9 19 -23 6 -24 -20
-79 -40 -91 -33 -5 4 -13 1 -17 -5 -4 -8 -9 -7 -15 2 -10 16 12 27 54 28 16 1
26 5 22 10 -6 11 30 19 60 13 11 -2 36 -5 55 -6z m2390 1 c21 -16 19 -42 -2
-41 -10 1 -16 -3 -15 -8 1 -6 -4 -13 -12 -16 -11 -3 -12 1 -8 19 4 13 7 32 7
42 0 20 9 21 30 4z m-2224 -24 c-10 -10 -19 5 -10 18 6 11 8 11 12 0 2 -7 1
-15 -2 -18z m1684 23 c0 -3 -4 -8 -10 -11 -5 -3 -10 -1 -10 4 0 6 5 11 10 11
6 0 10 -2 10 -4z m226 -24 c-4 -3 -14 2 -24 12 -16 18 -16 18 6 6 13 -6 21
-14 18 -18z m-1936 8 c0 -4 -7 -11 -16 -14 -22 -8 -24 -8 -24 7 0 7 9 13 20
14 11 1 20 -2 20 -7z m90 2 c0 -4 -9 -13 -20 -20 -22 -13 -27 -3 -8 16 14 14
28 16 28 4z m80 -39 c0 -1 -11 -3 -24 -3 -19 0 -22 4 -18 25 l4 25 19 -21 c11
-12 19 -24 19 -26z m1560 27 c0 -5 -2 -10 -4 -10 -3 0 -8 5 -11 10 -3 6 -1 10
4 10 6 0 11 -4 11 -10z m175 -11 c-8 -12 -35 -12 -35 0 0 11 22 20 33 14 4 -2
5 -9 2 -14z m-3575 1 c0 -5 -4 -10 -10 -10 -5 0 -10 -7 -10 -15 0 -10 -10 -14
-35 -13 -19 1 -32 5 -29 10 3 5 12 7 19 4 7 -2 21 4 31 15 19 21 34 25 34 9z
m3980 -15 c0 -20 -5 -25 -23 -25 -36 0 -40 12 -9 31 15 10 28 18 30 18 1 1 2
-10 2 -24z m-3865 5 c9 -14 -57 -40 -83 -33 -12 3 -19 9 -16 15 3 5 13 7 22 4
10 -3 28 1 42 9 31 17 28 17 35 5z m3322 2 c13 -8 7 -41 -12 -74 -9 -15 -18
-16 -55 -10 l-45 7 47 30 c26 17 45 36 43 43 -5 14 4 15 22 4z m-1969 -34 c-2
-14 -13 -25 -28 -29 l-25 -7 23 -7 c27 -9 28 -17 1 -33 -27 -17 -71 -7 -87 19
-17 27 -5 40 13 15 8 -10 19 -15 25 -11 9 6 9 9 0 15 -7 4 2 10 22 14 32 7 32
7 13 23 -20 15 -20 15 3 10 12 -3 22 -1 22 4 0 5 5 9 11 9 6 0 9 -10 7 -22z
m258 6 c-3 -8 -2 -12 4 -9 6 3 10 2 10 -4 0 -6 -13 -17 -30 -26 -19 -10 -30
-11 -30 -5 0 6 -5 8 -11 4 -6 -3 -15 -1 -19 7 -10 15 -4 29 11 29 6 0 7 -4 4
-10 -3 -5 1 -10 9 -10 8 0 18 9 21 20 3 11 13 20 22 20 10 0 13 -6 9 -16z
m-1556 -34 c0 -5 -5 -10 -11 -10 -5 0 -7 5 -4 10 3 6 8 10 11 10 2 0 4 -4 4
-10z m1144 -12 c-18 -20 -18 -21 -1 -15 11 4 16 3 12 -3 -7 -11 -35 -14 -35
-3 0 8 31 43 38 43 3 0 -3 -10 -14 -22z m-1279 2 c-3 -5 -12 -10 -18 -10 -7 0
-6 4 3 10 19 12 23 12 15 0z m35 6 c0 -3 -4 -8 -10 -11 -5 -3 -10 -1 -10 4 0
6 5 11 10 11 6 0 10 -2 10 -4z m3103 -2 c3 -4 -1 -17 -9 -30 -9 -13 -13 -28
-9 -34 3 -5 1 -10 -4 -10 -6 0 -11 5 -11 11 0 5 -4 7 -10 4 -5 -3 -10 -1 -10
4 0 6 -7 11 -16 11 -10 0 -6 8 13 25 28 25 45 30 56 19z m-1083 -14 c0 -5 -4
-10 -10 -10 -5 0 -10 5 -10 10 0 6 5 10 10 10 6 0 10 -4 10 -10z m920 1 c0
-10 -54 -31 -81 -31 -32 0 -21 16 19 27 49 14 62 15 62 4z m860 -1 c0 -5 -2
-10 -4 -10 -3 0 -8 5 -11 10 -3 6 -1 10 4 10 6 0 11 -4 11 -10z m-4150 -16 c0
-8 -4 -12 -10 -9 -5 3 -10 10 -10 16 0 5 5 9 10 9 6 0 10 -7 10 -16z m2012 0
c-5 -9 -7 -25 -5 -34 3 -10 -2 -20 -12 -24 -9 -3 -13 -2 -10 4 8 13 -1 13 -27
-1 -16 -9 -23 -8 -29 2 -15 24 -10 29 29 29 28 0 33 3 22 10 -13 9 -13 11 0
20 25 16 42 12 32 -6z m68 -23 c-9 -16 -50 -23 -50 -8 0 5 10 17 22 27 25 20
43 8 28 -19z m60 29 c0 -5 -4 -10 -10 -10 -5 0 -10 5 -10 10 0 6 5 10 10 10 6
0 10 -4 10 -10z m715 0 c-3 -5 -11 -10 -16 -10 -6 0 -7 5 -4 10 3 6 11 10 16
10 6 0 7 -4 4 -10z m72 4 c-3 -3 -12 -4 -19 -1 -8 3 -5 6 6 6 11 1 17 -2 13
-5z m-2951 -30 c-3 -7 0 -14 7 -17 6 -2 3 -6 -7 -10 -9 -4 -15 -3 -11 2 14 24
-17 18 -40 -6 l-25 -28 3 24 c2 14 10 27 18 29 8 3 17 11 22 18 10 17 40 6 33
-12z m180 11 c-21 -16 -32 -13 -21 4 3 6 14 11 23 11 15 -1 15 -2 -2 -15z
m436 3 c-7 -7 -12 -20 -12 -30 0 -16 -37 -45 -46 -35 -10 10 17 58 38 67 31
12 34 12 20 -2z m717 -8 c9 0 21 3 27 8 5 4 -1 -2 -13 -13 -30 -27 -63 -30
-63 -5 0 19 22 34 28 19 2 -5 11 -9 21 -9z m641 10 c0 -5 -7 -7 -15 -4 -8 4
-15 8 -15 10 0 2 7 4 15 4 8 0 15 -4 15 -10z m805 0 c-3 -5 -12 -10 -18 -10
-7 0 -6 4 3 10 19 12 23 12 15 0z m423 -2 c-6 -18 -28 -21 -28 -4 0 9 7 16 16
16 9 0 14 -5 12 -12z m-2818 -8 c-20 -13 -33 -13 -25 0 3 6 14 10 23 10 15 0
15 -2 2 -10z m1545 0 c-3 -5 -18 -10 -33 -9 l-27 1 25 8 c35 11 42 11 35 0z
m405 0 c0 -5 -2 -10 -4 -10 -3 0 -8 5 -11 10 -3 6 -1 10 4 10 6 0 11 -4 11
-10z m-2205 -9 c-21 -19 -88 -52 -94 -45 -3 4 -1 8 4 11 6 2 26 12 45 23 38
20 61 26 45 11z m1033 -15 c3 -12 -1 -17 -10 -14 -7 3 -15 13 -16 22 -3 12 1
17 10 14 7 -3 15 -13 16 -22z m1067 14 c-3 -5 -11 -10 -16 -10 -6 0 -7 5 -4
10 3 6 11 10 16 10 6 0 7 -4 4 -10z m667 -13 c6 -9 8 -9 8 1 0 6 9 12 20 12
23 0 26 -10 8 -28 -17 -17 -68 -15 -68 2 0 9 -7 12 -18 9 -10 -2 -25 3 -33 13
-13 16 -11 17 31 10 24 -4 48 -12 52 -19z m-1804 -1 c-7 -8 -16 -12 -21 -9
-11 7 2 23 19 23 12 0 12 -2 2 -14z m1680 -21 c2 -9 0 -15 -6 -11 -5 3 -12 -4
-15 -15 -5 -18 -9 -19 -27 -9 -24 13 -22 37 4 32 9 -2 16 4 16 13 0 22 24 13
28 -10z m282 15 c0 -5 -5 -10 -11 -10 -5 0 -7 5 -4 10 3 6 8 10 11 10 2 0 4
-4 4 -10z m-1860 -21 c-7 -11 -14 -18 -17 -15 -8 8 5 36 17 36 7 0 7 -6 0 -21z
m1474 2 c3 -5 -1 -11 -9 -15 -9 -3 -15 0 -15 9 0 16 16 20 24 6z m-1599 -11
c3 -5 -1 -10 -10 -10 -9 0 -13 5 -10 10 3 6 8 10 10 10 2 0 7 -4 10 -10z"/>
<path d="M71 2454 c0 -11 3 -14 6 -6 3 7 2 16 -1 19 -3 4 -6 -2 -5 -13z"/>
<path d="M2272 2138 c-18 -11 -31 -23 -28 -25 5 -5 76 35 76 43 0 8 -15 2 -48
-18z"/>
<path d="M534 808 l-19 -23 23 19 c21 18 27 26 19 26 -2 0 -12 -10 -23 -22z"/>
<path d="M286 658 c3 -5 10 -6 15 -3 13 9 11 12 -6 12 -8 0 -12 -4 -9 -9z"/>
<path d="M315 650 c-10 -11 -23 -17 -29 -13 -6 3 -8 2 -3 -2 4 -5 0 -17 -10
-27 -9 -10 -12 -18 -7 -17 9 1 80 79 72 79 -3 0 -13 -9 -23 -20z"/>
<path d="M2830 630 c0 -5 5 -10 10 -10 6 0 10 5 10 10 0 6 -4 10 -10 10 -5 0
-10 -4 -10 -10z"/>
<path d="M2430 396 c0 -2 9 -6 20 -9 11 -3 18 -1 14 4 -5 9 -34 13 -34 5z"/>
<path d="M640 251 c0 -6 5 -13 10 -16 6 -3 10 1 10 9 0 9 -4 16 -10 16 -5 0
-10 -4 -10 -9z"/>
<path d="M2331 276 c-8 -10 -9 -16 -1 -21 5 -3 13 1 16 10 9 22 -1 29 -15 11z"/>
<path d="M3282 305 c-2 -25 11 -34 22 -16 7 11 -3 41 -13 41 -4 0 -8 -11 -9
-25z"/>
<path d="M3250 310 c0 -5 -10 -18 -22 -30 -24 -22 -21 -25 16 -10 25 9 38 50
16 50 -5 0 -10 -4 -10 -10z"/>
<path d="M3090 278 c0 -4 7 -8 15 -8 8 0 15 4 15 8 0 5 -7 9 -15 9 -8 0 -15
-4 -15 -9z"/>
<path d="M3511 270 c-1 -24 2 -26 34 -22 42 5 47 22 6 22 -16 0 -32 6 -34 13
-3 6 -6 1 -6 -13z"/>
<path d="M3350 244 c-14 -8 -17 -13 -7 -10 10 3 25 6 33 6 8 0 14 5 14 10 0
14 -10 12 -40 -6z"/>
<path d="M2900 179 c0 -5 5 -7 10 -4 6 3 10 8 10 11 0 2 -4 4 -10 4 -5 0 -10
-5 -10 -11z"/>
<path d="M1640 210 c0 -5 5 -10 10 -10 6 0 10 5 10 10 0 6 -4 10 -10 10 -5 0
-10 -4 -10 -10z"/>
<path d="M1580 199 c0 -5 9 -9 20 -9 11 0 20 2 20 4 0 2 -9 6 -20 9 -11 3 -20
1 -20 -4z"/>
<path d="M1670 159 c0 -5 5 -7 10 -4 6 3 10 8 10 11 0 2 -4 4 -10 4 -5 0 -10
-5 -10 -11z"/>
<path d="M2065 340 c3 -5 8 -10 11 -10 2 0 4 5 4 10 0 6 -5 10 -11 10 -5 0 -7
-4 -4 -10z"/>
<path d="M2000 4690 c0 -5 5 -10 11 -10 5 0 7 5 4 10 -3 6 -8 10 -11 10 -2 0
-4 -4 -4 -10z"/>
<path d="M3030 4065 c7 -9 15 -13 17 -11 7 7 -7 26 -19 26 -6 0 -6 -6 2 -15z"/>
<path d="M3073 3965 c0 -7 8 -10 19 -7 10 2 18 6 18 7 0 1 -8 5 -18 7 -11 3
-19 0 -19 -7z"/>
<path d="M3125 3970 c-3 -5 -1 -10 4 -10 6 0 11 5 11 10 0 6 -2 10 -4 10 -3 0
-8 -4 -11 -10z"/>
<path d="M3028 3963 c6 -2 18 -2 25 0 6 3 1 5 -13 5 -14 0 -19 -2 -12 -5z"/>
<path d="M3180 3959 c0 -5 5 -7 10 -4 6 3 10 8 10 11 0 2 -4 4 -10 4 -5 0 -10
-5 -10 -11z"/>
<path d="M3300 3950 c0 -5 5 -10 11 -10 5 0 7 5 4 10 -3 6 -8 10 -11 10 -2 0
-4 -4 -4 -10z"/>
<path d="M3380 3929 c0 -5 9 -9 20 -9 11 0 20 2 20 4 0 2 -9 6 -20 9 -11 3
-20 1 -20 -4z"/>
<path d="M3455 3910 c-3 -5 1 -10 10 -10 9 0 13 5 10 10 -3 6 -8 10 -10 10 -2
0 -7 -4 -10 -10z"/>
<path d="M3495 3909 c-8 -13 -6 -15 23 -24 22 -6 22 -5 10 14 -14 23 -24 26
-33 10z"/>
<path d="M3560 3879 c0 -5 5 -7 10 -4 6 3 10 2 10 -3 0 -4 24 -9 53 -9 48 -1
49 -1 17 7 -19 5 -38 6 -42 4 -3 -2 -9 0 -13 6 -8 13 -35 13 -35 -1z"/>
<path d="M3788 3883 c6 -2 18 -2 25 0 6 3 1 5 -13 5 -14 0 -19 -2 -12 -5z"/>
<path d="M2830 3829 c0 -5 5 -7 10 -4 6 3 10 8 10 11 0 2 -4 4 -10 4 -5 0 -10
-5 -10 -11z"/>
<path d="M1770 3810 c0 -5 5 -10 10 -10 6 0 10 5 10 10 0 6 -4 10 -10 10 -5 0
-10 -4 -10 -10z"/>
<path d="M1396 3766 c21 -15 30 -14 19 3 -3 6 -14 11 -23 11 -13 0 -13 -2 4
-14z"/>
<path d="M1451 3771 c-9 -6 -10 -11 -2 -15 13 -8 31 1 31 15 0 11 -11 11 -29
0z"/>
<path d="M1610 3760 c0 -5 7 -10 15 -10 8 0 15 5 15 10 0 6 -7 10 -15 10 -8 0
-15 -4 -15 -10z"/>
<path d="M2734 3716 c1 -8 5 -18 8 -22 4 -3 5 1 4 10 -1 8 -5 18 -8 22 -4 3
-5 -1 -4 -10z"/>
<path d="M1447 3676 c-4 -10 -1 -13 9 -9 15 6 19 23 5 23 -5 0 -11 -7 -14 -14z"/>
<path d="M2656 3563 c-6 -14 -5 -15 5 -6 7 7 10 15 7 18 -3 3 -9 -2 -12 -12z"/>
<path d="M3744 3529 c-3 -6 -2 -15 3 -20 5 -5 9 -1 9 11 0 23 -2 24 -12 9z"/>
<path d="M3820 3351 c0 -17 18 -21 24 -6 3 9 0 15 -9 15 -8 0 -15 -4 -15 -9z"/>
<path d="M4115 3310 c3 -5 10 -10 16 -10 5 0 9 5 9 10 0 6 -7 10 -16 10 -8 0
-12 -4 -9 -10z"/>
<path d="M3867 3304 c-8 -8 3 -34 14 -34 11 0 12 27 0 34 -4 3 -11 3 -14 0z"/>
<path d="M4005 3300 c-3 -5 3 -10 15 -10 12 0 18 5 15 10 -3 6 -10 10 -15 10
-5 0 -12 -4 -15 -10z"/>
<path d="M3911 3284 c0 -11 3 -14 6 -6 3 7 2 16 -1 19 -3 4 -6 -2 -5 -13z"/>
<path d="M3963 3286 c4 -9 1 -16 -5 -16 -9 0 -9 -3 0 -12 10 -10 15 -10 22 2
12 18 8 32 -10 38 -9 3 -11 -1 -7 -12z"/>
<path d="M4097 3265 c-4 -8 -2 -17 3 -20 6 -4 10 1 10 9 0 10 6 13 15 10 8 -4
15 -1 15 5 0 16 -37 13 -43 -4z"/>
<path d="M4190 3260 c0 -5 7 -10 15 -10 8 0 15 5 15 10 0 6 -7 10 -15 10 -8 0
-15 -4 -15 -10z"/>
<path d="M4240 3250 c0 -9 13 -24 30 -33 18 -11 27 -23 23 -32 -3 -11 -1 -13
10 -9 11 4 16 -2 19 -18 2 -15 11 -24 26 -26 27 -4 29 14 2 23 -24 7 -26 23
-5 31 8 4 12 10 9 16 -3 5 -12 7 -19 4 -19 -7 -41 20 -23 28 7 3 0 3 -15 -1
-20 -4 -32 0 -42 13 -12 15 -14 16 -15 4z"/>
<path d="M4070 3234 c0 -13 18 -39 24 -34 2 3 -2 14 -10 24 -8 11 -14 16 -14
10z"/>
<path d="M4122 3223 c1 -5 -6 -20 -16 -35 -10 -15 -15 -32 -11 -38 11 -18 25
-11 25 15 0 14 5 25 11 25 5 0 7 5 4 10 -3 6 -1 10 5 10 6 0 8 5 5 10 -7 12
-26 14 -23 3z"/>
<path d="M4387 3094 c-4 -4 -4 -10 -1 -15 6 -10 34 0 34 12 0 10 -24 12 -33 3z"/>
<path d="M4347 3064 c-8 -8 1 -24 14 -24 5 0 9 7 9 15 0 15 -12 20 -23 9z"/>
<path d="M4400 3044 c0 -8 5 -12 10 -9 6 4 8 11 5 16 -9 14 -15 11 -15 -7z"/>
<path d="M2169 2993 c-13 -16 -12 -17 4 -4 9 7 17 15 17 17 0 8 -8 3 -21 -13z"/>
<path d="M4409 2997 c-8 -7 -20 -12 -27 -9 -7 2 -12 -5 -12 -17 0 -23 15 -28
23 -8 4 10 6 10 6 0 1 -7 5 -13 11 -13 5 0 7 7 3 16 -3 9 0 20 8 24 7 5 11 12
7 15 -3 3 -12 0 -19 -8z"/>
<path d="M4515 2650 c3 -5 8 -10 11 -10 2 0 4 5 4 10 0 6 -5 10 -11 10 -5 0
-7 -4 -4 -10z"/>
<path d="M2195 2560 c-3 -5 -1 -10 4 -10 6 0 11 5 11 10 0 6 -2 10 -4 10 -3 0
-8 -4 -11 -10z"/>
<path d="M1795 2438 c-121 -60 -155 -94 -155 -155 0 -20 3 -23 28 -17 15 4 47
17 72 31 50 26 138 93 123 93 -5 0 -14 -5 -21 -12 -6 -6 -14 -9 -18 -6 -8 9 4
45 22 63 31 31 7 33 -51 3z"/>
<path d="M1770 2294 c-91 -51 -105 -58 -127 -60 -13 -1 -80 -33 -150 -69 -71
-37 -167 -87 -215 -112 -49 -24 -88 -49 -88 -54 0 -5 22 5 48 21 27 16 57 31
68 33 10 2 27 7 36 11 10 5 23 2 31 -5 12 -11 4 -20 -51 -57 -35 -24 -67 -41
-70 -38 -3 3 -21 -3 -41 -13 -49 -26 -91 -33 -84 -13 5 12 2 12 -18 2 -30 -15
-59 -41 -59 -50 0 -17 33 -19 75 -5 24 9 130 57 237 109 196 95 264 127 376
177 59 27 62 30 62 63 0 19 4 46 10 60 5 14 8 26 7 26 -1 -1 -22 -12 -47 -26z
m-293 -201 c0 -6 -6 -9 -13 -6 -7 2 -22 -1 -34 -7 -19 -10 -20 -10 -12 7 11
20 59 25 59 6z"/>
<path d="M1770 2165 c-14 -8 -20 -14 -15 -14 6 0 21 6 35 14 14 8 21 14 15 14
-5 0 -21 -6 -35 -14z"/>
<path d="M1790 2150 c-8 -5 -10 -10 -5 -10 6 0 17 5 25 10 8 5 11 10 5 10 -5
0 -17 -5 -25 -10z"/>
<path d="M1765 2114 c-27 -13 -39 -21 -25 -18 29 7 100 43 85 43 -5 0 -32 -11
-60 -25z"/>
<path d="M1685 2080 c-3 -6 1 -7 9 -4 18 7 21 14 7 14 -6 0 -13 -4 -16 -10z"/>
<path d="M1430 1950 c-8 -5 -10 -10 -5 -10 6 0 17 5 25 10 8 5 11 10 5 10 -5
0 -17 -5 -25 -10z"/>
<path d="M1260 1920 c-9 -6 -10 -10 -3 -10 6 0 15 5 18 10 8 12 4 12 -15 0z"/>
<path d="M1320 1905 c-14 -8 -20 -14 -15 -14 6 0 21 6 35 14 14 8 21 14 15 14
-5 0 -21 -6 -35 -14z"/>
<path d="M1183 1858 c-51 -25 -3 -39 54 -17 26 10 27 12 8 19 -26 11 -36 11
-62 -2z"/>
<path d="M1020 1843 c0 -13 -4 -23 -10 -23 -17 0 -42 -61 -46 -116 -4 -52 -3
-55 23 -65 21 -8 37 -7 67 5 54 22 239 127 232 133 -2 3 -33 -12 -67 -33 -51
-32 -72 -39 -118 -40 -31 -1 -68 -5 -83 -9 -23 -6 -28 -4 -28 11 0 27 36 80
43 62 3 -7 6 5 6 27 0 22 -4 47 -9 55 -8 12 -10 11 -10 -7z m25 -163 c-3 -5
-11 -10 -16 -10 -6 0 -7 5 -4 10 3 6 11 10 16 10 6 0 7 -4 4 -10z"/>
<path d="M3611 1564 c0 -11 3 -14 6 -6 3 7 2 16 -1 19 -3 4 -6 -2 -5 -13z"/>
<path d="M3170 1426 c0 -2 7 -6 15 -10 8 -3 15 -1 15 4 0 6 -7 10 -15 10 -8 0
-15 -2 -15 -4z"/>
<path d="M3886 1385 c4 -8 12 -15 19 -15 7 0 15 -5 17 -12 3 -9 6 -9 11 0 5 7
-4 17 -22 27 -27 13 -30 13 -25 0z"/>
<path d="M330 1290 c-8 -5 -12 -12 -9 -15 4 -3 12 1 19 10 14 17 11 19 -10 5z"/>
<path d="M3985 1290 c3 -5 8 -10 11 -10 2 0 4 5 4 10 0 6 -5 10 -11 10 -5 0
-7 -4 -4 -10z"/>
<path d="M3970 1215 c0 -8 5 -15 10 -15 6 0 10 7 10 15 0 8 -4 15 -10 15 -5 0
-10 -7 -10 -15z"/>
<path d="M3935 1210 c3 -5 8 -10 11 -10 2 0 4 5 4 10 0 6 -5 10 -11 10 -5 0
-7 -4 -4 -10z"/>
<path d="M4588 903 c-10 -2 -18 -9 -18 -14 0 -6 -6 -9 -12 -8 -33 4 -69 -2
-63 -10 7 -12 -25 -30 -42 -24 -6 2 -15 -1 -19 -8 -4 -7 -3 -9 4 -5 6 3 13 2
17 -4 9 -15 41 -12 59 6 9 8 16 11 16 6 0 -5 12 -7 26 -4 14 2 23 10 21 16 -5
13 73 14 111 2 13 -5 22 -3 22 3 0 10 -6 12 -42 15 -7 1 -19 9 -26 19 -13 17
-22 19 -54 10z"/>
<path d="M4127 860 c-20 -4 -40 -10 -44 -14 -4 -3 8 -3 26 0 32 7 33 6 22 -15
-10 -17 -9 -21 4 -21 9 0 13 5 10 10 -4 6 6 10 24 10 34 0 51 18 30 31 -16 10
-19 10 -72 -1z"/>
<path d="M4398 863 c-10 -2 -18 -9 -18 -14 0 -6 7 -6 18 -1 9 5 24 12 32 15
13 5 13 5 0 5 -8 0 -23 -2 -32 -5z"/>
<path d="M3552 828 c-8 -10 -4 -13 15 -15 15 0 22 2 17 6 -5 3 -12 10 -15 14
-3 4 -11 2 -17 -5z"/>
<path d="M3775 816 c-16 -6 -50 -26 -74 -44 -25 -18 -56 -32 -73 -32 -17 0
-28 -5 -28 -14 0 -8 -6 -17 -12 -19 -7 -3 -3 -6 10 -6 12 -1 22 3 22 7 0 9 75
46 94 47 6 1 30 6 53 13 23 7 68 15 100 18 77 8 106 26 35 22 -32 -2 -51 1
-48 7 5 14 -43 14 -79 1z"/>
<path d="M3908 823 c7 -3 16 -2 19 1 4 3 -2 6 -13 5 -11 0 -14 -3 -6 -6z"/>
<path d="M4398 813 c7 -3 16 -2 19 1 4 3 -2 6 -13 5 -11 0 -14 -3 -6 -6z"/>
<path d="M3670 800 c0 -6 -19 -9 -45 -7 -51 4 -55 -1 -23 -29 12 -10 19 -14
15 -8 -3 6 7 10 27 11 59 2 108 43 51 43 -14 0 -25 -5 -25 -10z"/>
<path d="M3938 769 l-23 -21 25 7 c14 4 44 10 68 14 60 11 61 18 3 19 -37 1
-55 -4 -73 -19z"/>
<path d="M3645 710 c-3 -6 5 -10 19 -10 14 0 28 5 31 10 3 6 -5 10 -19 10 -14
0 -28 -4 -31 -10z"/>
<path d="M2335 694 c-37 -19 -64 -44 -48 -44 7 0 15 5 18 10 4 6 11 8 16 5 5
-4 9 -1 9 4 0 6 6 11 14 11 15 0 31 18 24 25 -2 2 -17 -3 -33 -11z"/>
<path d="M2571 693 c-1 -16 -7 -23 -20 -23 -11 0 -22 -4 -26 -10 -3 -5 -24 -7
-46 -5 -44 4 -92 -12 -86 -29 4 -11 13 -11 78 -1 28 4 36 2 36 -10 0 -8 -6
-15 -13 -15 -7 0 -16 -4 -19 -10 -9 -14 25 0 54 22 13 10 27 15 32 12 5 -3 9
0 9 5 0 6 -7 11 -15 11 -8 0 -15 4 -15 10 0 5 6 7 13 5 24 -9 38 10 28 36 -10
24 -10 24 -10 2z"/>
<path d="M2620 694 c0 -8 5 -12 10 -9 6 3 10 10 10 16 0 5 -4 9 -10 9 -5 0
-10 -7 -10 -16z"/>
<path d="M4474 668 c-3 -4 3 -11 13 -14 10 -3 26 -10 35 -15 24 -12 45 -11 54
2 5 9 -1 10 -21 5 -22 -6 -26 -4 -22 7 4 11 -3 16 -24 19 -17 3 -32 1 -35 -4z"/>
<path d="M4658 673 c-16 -2 -28 -8 -28 -13 0 -5 -8 -11 -17 -14 -10 -3 -7 -4
7 -2 14 2 34 7 44 11 14 6 17 5 11 -4 -6 -10 -3 -11 14 -2 11 7 21 16 21 21 0
10 -3 10 -52 3z"/>
<path d="M1950 620 c-8 -5 -11 -12 -7 -16 4 -4 15 0 24 9 18 18 8 23 -17 7z"/>
<path d="M4475 615 l-30 -13 35 -1 c43 -1 70 13 45 23 -9 3 -17 6 -18 6 -1 -1
-15 -7 -32 -15z"/>
<path d="M2156 612 c-3 -5 -19 -7 -35 -6 -25 2 -31 -2 -31 -17 0 -10 -6 -19
-14 -19 -16 0 -31 -18 -23 -26 3 -3 19 2 36 10 34 18 86 22 76 6 -3 -6 -23
-19 -43 -29 -32 -17 -35 -20 -18 -27 13 -5 24 -1 35 12 9 11 24 18 34 16 9 -2
20 4 23 12 3 9 10 14 14 11 5 -3 11 -1 15 5 4 6 10 8 15 5 11 -7 50 30 50 46
0 15 -38 1 -61 -22 -11 -11 -24 -17 -30 -13 -8 4 -7 10 0 17 6 6 11 15 11 19
0 10 -47 10 -54 0z"/>
<path d="M2310 610 c0 -5 5 -10 10 -10 6 0 10 5 10 10 0 6 -4 10 -10 10 -5 0
-10 -4 -10 -10z"/>
<path d="M1868 599 c-30 -17 -20 -28 12 -13 17 9 30 17 30 20 0 7 -25 4 -42
-7z"/>
<path d="M1984 596 c-17 -5 -37 -19 -44 -30 -11 -18 -11 -19 1 -10 8 7 29 15
46 19 33 7 50 20 36 27 -5 2 -22 0 -39 -6z"/>
<path d="M4640 600 c-11 -7 -4 -8 23 -6 21 2 40 6 44 10 10 10 -50 7 -67 -4z"/>
<path d="M4166 567 c-16 -12 -14 -13 18 -9 20 2 36 8 36 13 0 13 -34 11 -54
-4z"/>
<path d="M4645 570 c-3 -5 1 -10 9 -10 9 0 16 5 16 10 0 6 -4 10 -9 10 -6 0
-13 -4 -16 -10z"/>
<path d="M1780 550 c0 -5 5 -10 10 -10 6 0 10 5 10 10 0 6 -4 10 -10 10 -5 0
-10 -4 -10 -10z"/>
<path d="M1620 531 c0 -5 6 -11 13 -14 8 -3 14 1 14 9 0 8 -6 14 -14 14 -7 0
-13 -4 -13 -9z"/>
<path d="M1970 529 c0 -5 5 -7 10 -4 6 3 10 8 10 11 0 2 -4 4 -10 4 -5 0 -10
-5 -10 -11z"/>
<path d="M3885 529 c-9 -14 -2 -20 14 -10 8 6 9 11 3 15 -6 3 -14 1 -17 -5z"/>
<path d="M3945 530 c-3 -6 1 -7 9 -4 18 7 21 14 7 14 -6 0 -13 -4 -16 -10z"/>
<path d="M4540 530 c-15 -10 -13 -10 35 -10 3 0 5 3 6 8 0 11 -25 13 -41 2z"/>
<path d="M2203 523 c-18 -2 -33 -8 -33 -13 0 -12 49 -5 63 9 6 6 9 10 7 9 -3
0 -20 -3 -37 -5z"/>
<path d="M4300 522 c-14 -2 -31 -8 -37 -14 -15 -12 -8 -28 10 -24 7 1 9 1 5
-1 -18 -10 -6 -20 22 -19 16 1 30 4 30 9 0 4 9 7 20 7 11 0 20 7 20 15 0 8 5
15 12 15 6 0 8 3 4 8 -8 7 -45 9 -86 4z"/>
<path d="M1690 510 c-13 -8 -13 -10 2 -10 9 0 20 5 23 10 8 13 -5 13 -25 0z"/>
<path d="M3500 510 c0 -5 6 -10 14 -10 8 0 18 5 21 10 3 6 -3 10 -14 10 -12 0
-21 -4 -21 -10z"/>
<path d="M4445 511 c3 -6 -7 -9 -22 -8 -22 2 -29 -3 -31 -21 -3 -22 -1 -23 40
-18 24 2 46 5 51 5 4 1 7 8 7 17 0 9 -5 12 -12 8 -8 -5 -9 -2 -5 9 5 13 1 17
-14 17 -11 0 -18 -4 -14 -9z"/>
<path d="M1760 500 c0 -5 7 -7 15 -4 8 4 15 8 15 10 0 2 -7 4 -15 4 -8 0 -15
-4 -15 -10z"/>
<path d="M1606 454 c-11 -8 -16 -14 -10 -14 13 0 39 18 34 24 -3 2 -14 -2 -24
-10z"/>
<path d="M2956 455 c-3 -8 -1 -15 4 -15 6 0 10 7 10 15 0 8 -2 15 -4 15 -2 0
-6 -7 -10 -15z"/>
<path d="M1300 430 c-8 -5 -12 -11 -9 -14 7 -8 49 5 49 15 0 12 -21 11 -40 -1z"/>
<path d="M2846 421 c-14 -5 -16 -10 -8 -15 7 -4 19 0 28 8 17 17 11 19 -20 7z"/>
<path d="M2980 419 c0 -5 5 -7 10 -4 6 3 10 8 10 11 0 2 -4 4 -10 4 -5 0 -10
-5 -10 -11z"/>
<path d="M1230 389 c0 -5 5 -7 10 -4 6 3 10 8 10 11 0 2 -4 4 -10 4 -5 0 -10
-5 -10 -11z"/>
<path d="M2820 380 c-13 -8 -13 -10 2 -10 9 0 20 5 23 10 8 13 -5 13 -25 0z"/>
<path d="M358 272 c-31 -17 -48 -34 -48 -46 0 -17 3 -16 25 8 13 14 28 26 33
26 5 0 17 9 27 20 23 26 20 25 -37 -8z"/>
<path d="M1145 289 c-4 -6 -5 -13 -2 -16 7 -7 27 6 27 18 0 12 -17 12 -25 -2z"/>
<path d="M3 214 c-1 -19 1 -34 4 -34 9 0 73 53 73 61 0 4 -17 8 -38 7 -36 0
-38 -2 -39 -34z"/>
<path d="M95 220 c-11 -5 -14 -9 -7 -9 7 -1 10 -5 7 -11 -3 -5 -1 -10 4 -10 6
0 11 5 11 11 0 5 5 7 10 4 6 -3 10 1 10 9 0 18 -6 19 -35 6z"/>
<path d="M151 214 c0 -11 3 -14 6 -6 3 7 2 16 -1 19 -3 4 -6 -2 -5 -13z"/>
<path d="M897 217 c4 -7 0 -8 -12 -3 -16 6 -16 4 -4 -10 11 -14 10 -18 -6 -31
-11 -8 -19 -21 -17 -29 2 -9 -6 -14 -23 -14 -14 0 -25 -4 -25 -9 0 -5 16 -9
35 -9 31 0 35 3 33 21 -2 14 3 23 16 25 13 3 16 0 11 -8 -6 -10 -1 -12 18 -8
15 3 28 0 30 -6 3 -7 9 -7 20 3 16 12 22 8 18 -12 -1 -5 3 -7 9 -5 7 2 11 7
11 11 -1 4 -1 13 -1 21 0 13 -41 26 -83 27 -13 0 -15 4 -7 19 7 14 5 19 -10
23 -13 3 -18 1 -13 -6z"/>
<path d="M1236 214 c-4 -9 -4 -19 -1 -22 2 -3 7 3 11 12 4 9 4 19 1 22 -2 3
-7 -3 -11 -12z"/>
<path d="M242 204 c-7 -8 -8 -14 -3 -14 10 0 25 19 20 25 -2 1 -10 -3 -17 -11z"/>
<path d="M170 196 c0 -9 30 -14 35 -6 4 6 -3 10 -14 10 -12 0 -21 -2 -21 -4z"/>
<path d="M195 170 c-19 -8 -19 -9 3 -9 12 -1 22 4 22 9 0 6 -1 10 -2 9 -2 0
-12 -4 -23 -9z"/>
<path d="M150 160 c-13 -8 -12 -10 3 -10 9 0 17 5 17 10 0 12 -1 12 -20 0z"/>
<path d="M0 149 c0 -5 5 -7 10 -4 5 3 10 8 10 11 0 2 -4 4 -10 4 -5 0 -10 -5
-10 -11z"/>
<path d="M30 135 c0 -17 2 -18 24 -9 23 9 20 24 -4 24 -11 0 -20 -7 -20 -15z"/>
</g>
</svg>
